# This file uses centimeters as units for non-parametric coordinates.

mtllib dome.mtl
g default
v 0.401755 -0.192838 -0.291892
v 0.153457 -0.192838 -0.472292
v -0.153457 -0.192838 -0.472292
v -0.401755 -0.192838 -0.291892
v -0.496597 -0.192838 0.000000
v -0.401755 -0.192838 0.291892
v -0.153457 -0.192838 0.472292
v 0.153457 -0.192838 0.472292
v 0.401755 -0.192838 0.291892
v 0.496597 -0.192838 0.000000
v 0.382092 -0.039381 -0.277606
v 0.145946 -0.039381 -0.449176
v -0.145946 -0.039381 -0.449176
v -0.382092 -0.039381 -0.277606
v -0.472292 -0.039381 0.000000
v -0.382092 -0.039381 0.277606
v -0.145946 -0.039381 0.449176
v 0.145946 -0.039381 0.449176
v 0.382092 -0.039381 0.277606
v 0.472292 -0.039381 0.000000
v 0.325027 0.099054 -0.236146
v 0.124149 0.099054 -0.382092
v -0.124149 0.099054 -0.382092
v -0.325027 0.099054 -0.236146
v -0.401755 0.099054 0.000000
v -0.325027 0.099054 0.236146
v -0.124149 0.099054 0.382092
v 0.124149 0.099054 0.382092
v 0.325027 0.099054 0.236146
v 0.401755 0.099054 0.000000
v 0.236146 0.208917 -0.171570
v 0.090200 0.208917 -0.277606
v -0.090200 0.208917 -0.277606
v -0.236146 0.208917 -0.171570
v -0.291892 0.208917 0.000000
v -0.236146 0.208917 0.171570
v -0.090200 0.208917 0.277606
v 0.090200 0.208917 0.277606
v 0.236146 0.208917 0.171570
v 0.291892 0.208917 0.000000
v 0.124149 0.279454 -0.090200
v 0.047421 0.279454 -0.145946
v -0.047421 0.279454 -0.145946
v -0.124149 0.279454 -0.090200
v -0.153457 0.279454 0.000000
v -0.124149 0.279454 0.090200
v -0.047421 0.279454 0.145946
v 0.047421 0.279454 0.145946
v 0.124149 0.279454 0.090200
v 0.153457 0.279454 0.000000
v 0.000000 0.282858 0.000000
vt 0.280887 0.517059
vt 0.280887 0.320208
vt 0.384378 0.320208
vt 0.384378 0.507425
vt 0.280887 0.123357
vt 0.384378 0.132991
vt 0.477738 0.320208
vt 0.477738 0.479464
vt 0.280887 0.638720
vt 0.384378 0.623131
vt 0.280887 0.001696
vt 0.384378 0.017285
vt 0.477738 0.160952
vt 0.551830 0.320208
vt 0.551830 0.435914
vt 0.477738 0.577890
vt 0.477738 0.062526
vt 0.551830 0.204502
vt 0.001992 0.517059
vt 0.001992 0.320208
vt 0.105483 0.320208
vt 0.105483 0.507425
vt 0.001992 0.123357
vt 0.105483 0.132991
vt 0.198843 0.320208
vt 0.198843 0.479464
vt 0.001992 0.638720
vt 0.105483 0.623131
vt 0.001992 0.001696
vt 0.105483 0.017285
vt 0.198843 0.160952
vt 0.272935 0.320208
vt 0.272935 0.435914
vt 0.198843 0.577890
vt 0.198843 0.062526
vt 0.272935 0.204502
vt 0.938067 0.375084
vt 0.839641 0.446595
vt 0.810791 0.357803
vt 0.862537 0.320208
vt 0.998008 0.418634
vt 0.862537 0.517059
vt 0.717981 0.446594
vt 0.746831 0.357803
vt 0.778811 0.259378
vt 0.975662 0.259378
vt 0.882302 0.259378
vt 0.695085 0.517059
vt 0.619555 0.375084
vt 0.695085 0.320208
vt 0.938067 0.143671
vt 0.862537 0.198547
vt 0.559614 0.418634
vt 0.581960 0.259378
vt 0.675320 0.259378
vt 0.839641 0.072161
vt 0.810791 0.160952
vt 0.619555 0.143671
vt 0.695085 0.198547
vt 0.862537 0.001696
vt 0.998008 0.100122
vt 0.717981 0.072161
vt 0.746831 0.160952
vt 0.695085 0.001696
vt 0.559614 0.100122
vt 0.553478 0.642712
vt 0.553478 0.849693
vt 0.449988 0.844628
vt 0.449988 0.647777
vt 0.356627 0.829928
vt 0.356627 0.662477
vt 0.153640 0.849693
vt 0.153640 0.642712
vt 0.257131 0.647777
vt 0.257131 0.844628
vt 0.350492 0.662477
vt 0.350492 0.829928
vn 0.581228 0.148952 -0.799992
vn 0.581228 0.148952 -0.799992
vn 0.581228 0.148952 -0.799992
vn 0.581228 0.148952 -0.799992
vn -0.000000 0.148952 -0.988844
vn -0.000000 0.148952 -0.988844
vn -0.000000 0.148952 -0.988844
vn -0.000000 0.148952 -0.988844
vn -0.581228 0.148952 -0.799992
vn -0.581228 0.148952 -0.799992
vn -0.581228 0.148952 -0.799992
vn -0.581228 0.148952 -0.799992
vn -0.940447 0.148952 -0.305570
vn -0.940447 0.148952 -0.305570
vn -0.940447 0.148952 -0.305570
vn -0.940447 0.148952 -0.305570
vn -0.940447 0.148952 0.305570
vn -0.940447 0.148952 0.305570
vn -0.940447 0.148952 0.305570
vn -0.940447 0.148952 0.305570
vn -0.581228 0.148952 0.799992
vn -0.581228 0.148952 0.799992
vn -0.581228 0.148952 0.799992
vn -0.581228 0.148952 0.799992
vn 0.000000 0.148952 0.988844
vn 0.000000 0.148952 0.988844
vn 0.000000 0.148952 0.988844
vn 0.000000 0.148952 0.988844
vn 0.581228 0.148952 0.799992
vn 0.581228 0.148952 0.799992
vn 0.581228 0.148952 0.799992
vn 0.581228 0.148952 0.799992
vn 0.940447 0.148952 0.305570
vn 0.940447 0.148952 0.305570
vn 0.940447 0.148952 0.305570
vn 0.940447 0.148952 0.305570
vn 0.940447 0.148952 -0.305569
vn 0.940447 0.148952 -0.305570
vn 0.940447 0.148952 -0.305569
vn 0.940447 0.148952 -0.305569
vn 0.528952 0.436083 -0.728039
vn 0.528952 0.436083 -0.728039
vn 0.528952 0.436083 -0.728040
vn 0.528952 0.436083 -0.728040
vn -0.000000 0.436083 -0.899906
vn -0.000000 0.436083 -0.899906
vn -0.000000 0.436083 -0.899906
vn -0.000000 0.436083 -0.899906
vn -0.528952 0.436083 -0.728039
vn -0.528952 0.436083 -0.728039
vn -0.528952 0.436083 -0.728039
vn -0.528952 0.436083 -0.728039
vn -0.855862 0.436083 -0.278086
vn -0.855862 0.436083 -0.278086
vn -0.855862 0.436083 -0.278086
vn -0.855862 0.436083 -0.278086
vn -0.855862 0.436083 0.278086
vn -0.855862 0.436083 0.278086
vn -0.855862 0.436083 0.278086
vn -0.855862 0.436083 0.278086
vn -0.528952 0.436083 0.728039
vn -0.528952 0.436083 0.728039
vn -0.528952 0.436083 0.728039
vn -0.528952 0.436083 0.728039
vn 0.000000 0.436083 0.899906
vn 0.000000 0.436083 0.899906
vn 0.000000 0.436083 0.899906
vn 0.000000 0.436083 0.899906
vn 0.528952 0.436083 0.728040
vn 0.528952 0.436083 0.728040
vn 0.528952 0.436083 0.728040
vn 0.528952 0.436083 0.728040
vn 0.855862 0.436083 0.278086
vn 0.855862 0.436083 0.278086
vn 0.855862 0.436083 0.278086
vn 0.855862 0.436083 0.278086
vn 0.855862 0.436084 -0.278086
vn 0.855862 0.436084 -0.278086
vn 0.855862 0.436084 -0.278086
vn 0.855862 0.436084 -0.278086
vn 0.425919 0.689152 -0.586227
vn 0.425919 0.689152 -0.586227
vn 0.425919 0.689152 -0.586227
vn 0.425919 0.689152 -0.586227
vn -0.000000 0.689152 -0.724617
vn -0.000000 0.689152 -0.724617
vn -0.000000 0.689152 -0.724617
vn -0.000000 0.689152 -0.724617
vn -0.425919 0.689152 -0.586227
vn -0.425919 0.689152 -0.586227
vn -0.425919 0.689152 -0.586227
vn -0.425919 0.689152 -0.586227
vn -0.689152 0.689152 -0.223919
vn -0.689152 0.689152 -0.223919
vn -0.689152 0.689152 -0.223919
vn -0.689152 0.689152 -0.223919
vn -0.689152 0.689152 0.223919
vn -0.689152 0.689152 0.223919
vn -0.689152 0.689152 0.223919
vn -0.689152 0.689152 0.223919
vn -0.425919 0.689152 0.586228
vn -0.425919 0.689152 0.586228
vn -0.425919 0.689152 0.586228
vn -0.425919 0.689152 0.586228
vn 0.000000 0.689152 0.724617
vn 0.000000 0.689152 0.724617
vn 0.000000 0.689152 0.724617
vn 0.000000 0.689152 0.724617
vn 0.425919 0.689152 0.586227
vn 0.425919 0.689152 0.586227
vn 0.425919 0.689152 0.586227
vn 0.425919 0.689152 0.586227
vn 0.689152 0.689152 0.223919
vn 0.689152 0.689152 0.223919
vn 0.689152 0.689152 0.223919
vn 0.689152 0.689152 0.223919
vn 0.689152 0.689152 -0.223919
vn 0.689152 0.689152 -0.223919
vn 0.689152 0.689152 -0.223919
vn 0.689152 0.689152 -0.223919
vn 0.277578 0.881468 -0.382053
vn 0.277578 0.881468 -0.382053
vn 0.277578 0.881468 -0.382053
vn 0.277578 0.881468 -0.382053
vn -0.000000 0.881468 -0.472244
vn -0.000000 0.881468 -0.472244
vn -0.000000 0.881468 -0.472244
vn -0.000000 0.881468 -0.472244
vn -0.277578 0.881468 -0.382053
vn -0.277578 0.881468 -0.382053
vn -0.277578 0.881468 -0.382053
vn -0.277578 0.881468 -0.382053
vn -0.449130 0.881468 -0.145931
vn -0.449130 0.881468 -0.145931
vn -0.449130 0.881468 -0.145931
vn -0.449130 0.881468 -0.145931
vn -0.449131 0.881468 0.145931
vn -0.449131 0.881468 0.145931
vn -0.449130 0.881468 0.145931
vn -0.449130 0.881468 0.145931
vn -0.277578 0.881468 0.382053
vn -0.277578 0.881468 0.382053
vn -0.277578 0.881468 0.382053
vn -0.277578 0.881468 0.382053
vn 0.000000 0.881468 0.472244
vn 0.000000 0.881468 0.472244
vn 0.000000 0.881468 0.472244
vn 0.000000 0.881468 0.472244
vn 0.277578 0.881468 0.382053
vn 0.277578 0.881468 0.382053
vn 0.277578 0.881468 0.382053
vn 0.277578 0.881468 0.382053
vn 0.449130 0.881468 0.145931
vn 0.449130 0.881468 0.145931
vn 0.449130 0.881468 0.145931
vn 0.449130 0.881468 0.145931
vn 0.449130 0.881468 -0.145931
vn 0.449131 0.881468 -0.145931
vn 0.449131 0.881468 -0.145931
vn 0.449131 0.881468 -0.145931
vn 0.013708 0.999728 -0.018866
vn 0.013708 0.999728 -0.018866
vn 0.013708 0.999728 -0.018866
vn -0.000000 0.999728 -0.023320
vn -0.000000 0.999728 -0.023320
vn -0.000000 0.999728 -0.023320
vn -0.013708 0.999728 -0.018867
vn -0.013708 0.999728 -0.018867
vn -0.013708 0.999728 -0.018867
vn -0.022179 0.999728 -0.007206
vn -0.022179 0.999728 -0.007206
vn -0.022179 0.999728 -0.007206
vn -0.022179 0.999728 0.007206
vn -0.022179 0.999728 0.007206
vn -0.022179 0.999728 0.007206
vn -0.013708 0.999728 0.018866
vn -0.013708 0.999728 0.018866
vn -0.013708 0.999728 0.018866
vn 0.000000 0.999728 0.023321
vn 0.000000 0.999728 0.023321
vn 0.000000 0.999728 0.023321
vn 0.013708 0.999728 0.018866
vn 0.013708 0.999728 0.018866
vn 0.013708 0.999728 0.018866
vn 0.022179 0.999728 0.007206
vn 0.022179 0.999728 0.007206
vn 0.022179 0.999728 0.007206
vn 0.022179 0.999728 -0.007206
vn 0.022179 0.999728 -0.007206
vn 0.022179 0.999728 -0.007206
s off
g polySurface6 pSphere1
usemtl initialShadingGroup
f 1/23/1 2/29/2 12/30/3 11/24/4
f 2/66/5 3/67/6 13/68/7 12/69/8
f 3/9/9 4/1/10 14/4/11 13/10/12
f 4/1/13 5/2/14 15/3/15 14/4/16
f 5/2/17 6/5/18 16/6/19 15/3/20
f 6/5/21 7/11/22 17/12/23 16/6/24
f 7/72/25 8/73/26 18/74/27 17/75/28
f 8/27/29 9/19/30 19/22/31 18/28/32
f 9/19/33 10/20/34 20/21/35 19/22/36
f 10/20/37 1/23/38 11/24/39 20/21/40
f 11/24/41 12/30/42 22/35/43 21/31/44
f 12/69/45 13/68/46 23/70/47 22/71/48
f 13/10/49 14/4/50 24/8/51 23/16/52
f 14/4/53 15/3/54 25/7/55 24/8/56
f 15/3/57 16/6/58 26/13/59 25/7/60
f 16/6/61 17/12/62 27/17/63 26/13/64
f 17/75/65 18/74/66 28/76/67 27/77/68
f 18/28/69 19/22/70 29/26/71 28/34/72
f 19/22/73 20/21/74 30/25/75 29/26/76
f 20/21/77 11/24/78 21/31/79 30/25/80
f 21/41/81 22/42/82 32/38/83 31/37/84
f 22/42/85 23/48/86 33/43/87 32/38/88
f 23/48/89 24/53/90 34/49/91 33/43/92
f 24/8/93 25/7/94 35/14/95 34/15/96
f 25/7/97 26/13/98 36/18/99 35/14/100
f 26/65/101 27/64/102 37/62/103 36/58/104
f 27/64/105 28/60/106 38/56/107 37/62/108
f 28/60/109 29/61/110 39/51/111 38/56/112
f 29/26/113 30/25/114 40/32/115 39/33/116
f 30/25/117 21/31/118 31/36/119 40/32/120
f 31/37/121 32/38/122 42/39/123 41/40/124
f 32/38/125 33/43/126 43/44/127 42/39/128
f 33/43/129 34/49/130 44/50/131 43/44/132
f 34/49/133 35/54/134 45/55/135 44/50/136
f 35/54/137 36/58/138 46/59/139 45/55/140
f 36/58/141 37/62/142 47/63/143 46/59/144
f 37/62/145 38/56/146 48/57/147 47/63/148
f 38/56/149 39/51/150 49/52/151 48/57/152
f 39/51/153 40/46/154 50/47/155 49/52/156
f 40/46/157 31/37/158 41/40/159 50/47/160
f 41/40/161 42/39/162 51/45/163
f 42/39/164 43/44/165 51/45/166
f 43/44/167 44/50/168 51/45/169
f 44/50/170 45/55/171 51/45/172
f 45/55/173 46/59/174 51/45/175
f 46/59/176 47/63/177 51/45/178
f 47/63/179 48/57/180 51/45/181
f 48/57/182 49/52/183 51/45/184
f 49/52/185 50/47/186 51/45/187
f 50/47/188 41/40/189 51/45/190
