# This file uses centimeters as units for non-parametric coordinates.

mtllib door3.mtl
g default
v -0.439173 -0.020179 0.484652
v -0.010973 -0.020179 0.484652
v -0.439173 -0.020179 -0.414925
v -0.010973 -0.020179 -0.414925
v -0.439173 -0.052137 -0.414925
v -0.010973 -0.052137 -0.414925
v -0.439173 -0.052137 0.484652
v -0.010973 -0.052137 0.484652
v -0.363276 -0.020179 -0.414925
v -0.363276 -0.052137 -0.414925
v -0.363276 -0.052137 0.484652
v -0.363276 -0.020179 0.484652
v -0.098785 -0.020179 -0.414925
v -0.098785 -0.052137 -0.414925
v -0.098785 -0.052137 0.484652
v -0.098785 -0.020179 0.484652
v -0.010973 -0.020179 -0.289829
v -0.098785 -0.020179 -0.289829
v -0.363276 -0.020179 -0.289829
v -0.439173 -0.020179 -0.289829
v -0.439173 -0.052137 -0.289829
v -0.363276 -0.052137 -0.289829
v -0.098785 -0.052137 -0.289829
v -0.010973 -0.052137 -0.289829
v -0.010973 -0.020179 0.052196
v -0.098785 -0.020179 0.052196
v -0.363276 -0.020179 0.052196
v -0.439173 -0.020179 0.052196
v -0.439173 -0.052137 0.052196
v -0.363276 -0.052137 0.052196
v -0.098785 -0.052137 0.052196
v -0.010973 -0.052137 0.052196
v -0.363276 -0.046043 0.052196
v -0.363276 -0.046043 -0.289829
v -0.098785 -0.046043 0.052196
v -0.098785 -0.046043 -0.289829
vt 0.375000 0.000000
vt 0.419311 0.000000
vt 0.419311 0.120183
vt 0.375000 0.120183
vt 0.375000 0.250000
vt 0.419311 0.250000
vt 0.419311 0.500000
vt 0.375000 0.500000
vt 0.375000 0.629817
vt 0.419311 0.629817
vt 0.419311 0.750000
vt 0.375000 0.750000
vt 0.419311 1.000000
vt 0.375000 1.000000
vt 0.625000 0.000000
vt 0.875000 0.000000
vt 0.875000 0.120183
vt 0.625000 0.120183
vt 0.125000 0.000000
vt 0.125000 0.120183
vt 0.573732 0.250000
vt 0.573732 0.500000
vt 0.573732 0.629817
vt 0.573732 0.750000
vt 0.573732 1.000000
vt 0.573732 0.000000
vt 0.573732 0.120183
vt 0.625000 0.250000
vt 0.625000 0.500000
vt 0.625000 0.629817
vt 0.625000 0.750000
vt 0.625000 1.000000
vt 0.573732 0.215235
vt 0.625000 0.215235
vt 0.419311 0.215235
vt 0.375000 0.215235
vt 0.125000 0.215235
vt 0.125000 0.250000
vt 0.419311 0.534765
vt 0.375000 0.534765
vt 0.573732 0.534765
vt 0.625000 0.534765
vt 0.875000 0.215235
vt 0.875000 0.250000
vt 0.419311 0.215235
vt 0.419311 0.120183
vt 0.573732 0.120183
vt 0.573732 0.215235
vn 0.000000 1.000000 0.000000
vn 0.000000 1.000000 0.000000
vn 0.000000 1.000000 0.000000
vn 0.000000 1.000000 0.000000
vn 0.000000 0.000000 -1.000000
vn 0.000000 0.000000 -1.000000
vn 0.000000 0.000000 -1.000000
vn 0.000000 0.000000 -1.000000
vn 0.000000 -1.000000 0.000000
vn 0.000000 -1.000000 0.000000
vn 0.000000 -1.000000 0.000000
vn 0.000000 -1.000000 0.000000
vn 0.000000 0.000000 1.000000
vn 0.000000 0.000000 1.000000
vn 0.000000 0.000000 1.000000
vn 0.000000 0.000000 1.000000
vn 1.000000 0.000000 0.000000
vn 1.000000 0.000000 0.000000
vn 1.000000 0.000000 0.000000
vn 1.000000 0.000000 0.000000
vn -1.000000 0.000000 -0.000000
vn -1.000000 0.000000 -0.000000
vn -1.000000 0.000000 -0.000000
vn -1.000000 0.000000 -0.000000
vn 0.000000 0.000000 -1.000000
vn 0.000000 0.000000 -1.000000
vn 0.000000 0.000000 -1.000000
vn 0.000000 0.000000 -1.000000
vn 0.000000 -1.000000 0.000000
vn 0.000000 -1.000000 0.000000
vn 0.000000 -1.000000 0.000000
vn 0.000000 -1.000000 0.000000
vn 0.000000 0.000000 1.000000
vn 0.000000 0.000000 1.000000
vn 0.000000 0.000000 1.000000
vn 0.000000 0.000000 1.000000
vn 0.000000 1.000000 0.000000
vn 0.000000 1.000000 0.000000
vn 0.000000 1.000000 0.000000
vn 0.000000 1.000000 0.000000
vn 0.000000 0.000000 -1.000000
vn 0.000000 0.000000 -1.000000
vn 0.000000 0.000000 -1.000000
vn 0.000000 0.000000 -1.000000
vn 0.000000 -1.000000 0.000000
vn 0.000000 -1.000000 0.000000
vn 0.000000 -1.000000 0.000000
vn 0.000000 -1.000000 0.000000
vn 0.000000 0.000000 1.000000
vn 0.000000 0.000000 1.000000
vn 0.000000 0.000000 1.000000
vn 0.000000 0.000000 1.000000
vn 0.000000 1.000000 0.000000
vn 0.000000 1.000000 0.000000
vn 0.000000 1.000000 0.000000
vn 0.000000 1.000000 0.000000
vn 0.000000 1.000000 0.000000
vn 0.000000 1.000000 0.000000
vn 0.000000 1.000000 0.000000
vn 0.000000 1.000000 0.000000
vn 0.000000 1.000000 0.000000
vn 0.000000 1.000000 0.000000
vn 0.000000 1.000000 0.000000
vn 0.000000 1.000000 0.000000
vn 0.000000 1.000000 0.000000
vn 0.000000 1.000000 0.000000
vn 0.000000 1.000000 0.000000
vn 0.000000 1.000000 0.000000
vn -1.000000 0.000000 -0.000000
vn -1.000000 0.000000 -0.000000
vn -1.000000 0.000000 -0.000000
vn -1.000000 0.000000 -0.000000
vn 0.000000 -1.000000 0.000000
vn 0.000000 -1.000000 0.000000
vn 0.000000 -1.000000 0.000000
vn 0.000000 -1.000000 0.000000
vn 0.000000 -1.000000 0.000000
vn 0.000000 -1.000000 0.000000
vn 0.000000 -1.000000 0.000000
vn 0.000000 -1.000000 0.000000
vn 0.000000 -1.000000 0.000000
vn 0.000000 -1.000000 0.000000
vn 0.000000 -1.000000 0.000000
vn 0.000000 -1.000000 0.000000
vn 1.000000 0.000000 0.000000
vn 1.000000 0.000000 0.000000
vn 1.000000 0.000000 0.000000
vn 1.000000 0.000000 0.000000
vn 0.000000 1.000000 0.000000
vn 0.000000 1.000000 0.000000
vn 0.000000 1.000000 0.000000
vn 0.000000 1.000000 0.000000
vn 0.000000 1.000000 0.000000
vn 0.000000 1.000000 0.000000
vn 0.000000 1.000000 0.000000
vn 0.000000 1.000000 0.000000
vn 0.000000 1.000000 0.000000
vn 0.000000 1.000000 0.000000
vn 0.000000 1.000000 0.000000
vn 0.000000 1.000000 0.000000
vn -1.000000 0.000000 -0.000000
vn -1.000000 0.000000 -0.000000
vn -1.000000 0.000000 -0.000000
vn -1.000000 0.000000 -0.000000
vn 0.000000 -1.000000 0.000000
vn 0.000000 -1.000000 0.000000
vn 0.000000 -1.000000 0.000000
vn 0.000000 -1.000000 0.000000
vn 0.000000 -1.000000 0.000000
vn 0.000000 -1.000000 0.000000
vn 0.000000 -1.000000 0.000000
vn 0.000000 -1.000000 0.000000
vn 0.000000 -1.000000 0.000000
vn 0.000000 -1.000000 0.000000
vn 0.000000 -1.000000 0.000000
vn 0.000000 -1.000000 0.000000
vn 1.000000 0.000000 0.000000
vn 1.000000 0.000000 0.000000
vn 1.000000 0.000000 0.000000
vn 1.000000 0.000000 0.000000
vn 1.000000 0.000000 0.000000
vn 1.000000 0.000000 0.000000
vn 1.000000 0.000000 0.000000
vn 1.000000 0.000000 0.000000
vn 0.000000 0.000000 -1.000000
vn 0.000000 0.000000 -1.000000
vn 0.000000 0.000000 -1.000000
vn 0.000000 0.000000 -1.000000
vn -1.000000 0.000000 -0.000000
vn -1.000000 0.000000 -0.000000
vn -1.000000 0.000000 -0.000000
vn -1.000000 0.000000 -0.000000
vn 0.000000 0.000000 1.000000
vn 0.000000 0.000000 1.000000
vn 0.000000 0.000000 1.000000
vn 0.000000 0.000000 1.000000
s off
g pCube11
usemtl initialShadingGroup
f 1/1/1 12/2/2 27/3/3 28/4/4
f 3/5/5 9/6/6 10/7/7 5/8/8
f 29/9/9 30/10/10 11/11/11 7/12/12
f 7/12/13 11/11/14 12/13/15 1/14/16
f 2/15/17 8/16/18 32/17/19 25/18/20
f 7/19/21 1/1/22 28/4/23 29/20/24
f 9/6/25 13/21/26 14/22/27 10/7/28
f 11/11/29 30/10/30 31/23/31 15/24/32
f 12/13/33 11/11/34 15/24/35 16/25/36
f 27/3/37 12/2/38 16/26/39 26/27/40
f 13/21/41 4/28/42 6/29/43 14/22/44
f 15/24/45 31/23/46 32/30/47 8/31/48
f 16/25/49 15/24/50 8/31/51 2/32/52
f 26/27/53 16/26/54 2/15/55 25/18/56
f 13/21/57 18/33/58 17/34/59 4/28/60
f 9/6/61 19/35/62 18/33/63 13/21/64
f 20/36/65 19/35/66 9/6/67 3/5/68
f 21/37/69 20/36/70 3/5/71 5/38/72
f 5/8/73 10/7/74 22/39/75 21/40/76
f 23/41/77 22/39/78 10/7/79 14/22/80
f 24/42/81 23/41/82 14/22/83 6/29/84
f 17/34/85 24/43/86 6/44/87 4/28/88
f 18/33/89 26/27/90 25/18/91 17/34/92
f 34/45/93 33/46/94 35/47/95 36/48/96
f 28/4/97 27/3/98 19/35/99 20/36/100
f 29/20/101 28/4/102 20/36/103 21/37/104
f 21/40/105 22/39/106 30/10/107 29/9/108
f 31/23/109 30/10/110 22/39/111 23/41/112
f 32/30/113 31/23/114 23/41/115 24/42/116
f 25/18/117 32/17/118 24/43/119 17/34/120
f 19/35/121 27/3/122 33/46/123 34/45/124
f 27/3/125 26/27/126 35/47/127 33/46/128
f 26/27/129 18/33/130 36/48/131 35/47/132
f 18/33/133 19/35/134 34/45/135 36/48/136
g default
v 0.008922 -0.020179 0.484652
v 0.437122 -0.020179 0.484652
v 0.008922 -0.020179 -0.414925
v 0.437122 -0.020179 -0.414925
v 0.008922 -0.052137 -0.414925
v 0.437122 -0.052137 -0.414925
v 0.008922 -0.052137 0.484652
v 0.437122 -0.052137 0.484652
v 0.084819 -0.020179 -0.414925
v 0.084819 -0.052137 -0.414925
v 0.084819 -0.052137 0.484652
v 0.084819 -0.020179 0.484652
v 0.349310 -0.020179 -0.414925
v 0.349310 -0.052137 -0.414925
v 0.349310 -0.052137 0.484652
v 0.349310 -0.020179 0.484652
v 0.437122 -0.020179 -0.289829
v 0.349310 -0.020179 -0.289829
v 0.084819 -0.020179 -0.289829
v 0.008922 -0.020179 -0.289829
v 0.008922 -0.052137 -0.289829
v 0.084819 -0.052137 -0.289829
v 0.349310 -0.052137 -0.289829
v 0.437122 -0.052137 -0.289829
v 0.437122 -0.020179 0.052196
v 0.349310 -0.020179 0.052196
v 0.084819 -0.020179 0.052196
v 0.008922 -0.020179 0.052196
v 0.008922 -0.052137 0.052196
v 0.084819 -0.052137 0.052196
v 0.349310 -0.052137 0.052196
v 0.437122 -0.052137 0.052196
v 0.084819 -0.046043 0.052196
v 0.084819 -0.046043 -0.289829
v 0.349310 -0.046043 0.052196
v 0.349310 -0.046043 -0.289829
vt 0.375000 0.000000
vt 0.419311 0.000000
vt 0.419311 0.120183
vt 0.375000 0.120183
vt 0.375000 0.250000
vt 0.419311 0.250000
vt 0.419311 0.500000
vt 0.375000 0.500000
vt 0.375000 0.629817
vt 0.419311 0.629817
vt 0.419311 0.750000
vt 0.375000 0.750000
vt 0.419311 1.000000
vt 0.375000 1.000000
vt 0.625000 0.000000
vt 0.875000 0.000000
vt 0.875000 0.120183
vt 0.625000 0.120183
vt 0.125000 0.000000
vt 0.125000 0.120183
vt 0.573732 0.250000
vt 0.573732 0.500000
vt 0.573732 0.629817
vt 0.573732 0.750000
vt 0.573732 1.000000
vt 0.573732 0.000000
vt 0.573732 0.120183
vt 0.625000 0.250000
vt 0.625000 0.500000
vt 0.625000 0.629817
vt 0.625000 0.750000
vt 0.625000 1.000000
vt 0.573732 0.215235
vt 0.625000 0.215235
vt 0.419311 0.215235
vt 0.375000 0.215235
vt 0.125000 0.215235
vt 0.125000 0.250000
vt 0.419311 0.534765
vt 0.375000 0.534765
vt 0.573732 0.534765
vt 0.625000 0.534765
vt 0.875000 0.215235
vt 0.875000 0.250000
vt 0.419311 0.215235
vt 0.419311 0.120183
vt 0.573732 0.120183
vt 0.573732 0.215235
vn 0.000000 1.000000 0.000000
vn 0.000000 1.000000 0.000000
vn 0.000000 1.000000 0.000000
vn 0.000000 1.000000 0.000000
vn 0.000000 0.000000 -1.000000
vn 0.000000 0.000000 -1.000000
vn 0.000000 0.000000 -1.000000
vn 0.000000 0.000000 -1.000000
vn 0.000000 -1.000000 0.000000
vn 0.000000 -1.000000 0.000000
vn 0.000000 -1.000000 0.000000
vn 0.000000 -1.000000 0.000000
vn 0.000000 0.000000 1.000000
vn 0.000000 0.000000 1.000000
vn 0.000000 0.000000 1.000000
vn 0.000000 0.000000 1.000000
vn 1.000000 0.000000 0.000000
vn 1.000000 0.000000 0.000000
vn 1.000000 0.000000 0.000000
vn 1.000000 0.000000 0.000000
vn -1.000000 0.000000 -0.000000
vn -1.000000 0.000000 -0.000000
vn -1.000000 0.000000 -0.000000
vn -1.000000 0.000000 -0.000000
vn 0.000000 0.000000 -1.000000
vn 0.000000 0.000000 -1.000000
vn 0.000000 0.000000 -1.000000
vn 0.000000 0.000000 -1.000000
vn 0.000000 -1.000000 0.000000
vn 0.000000 -1.000000 0.000000
vn 0.000000 -1.000000 0.000000
vn 0.000000 -1.000000 0.000000
vn 0.000000 0.000000 1.000000
vn 0.000000 0.000000 1.000000
vn 0.000000 0.000000 1.000000
vn 0.000000 0.000000 1.000000
vn 0.000000 1.000000 0.000000
vn 0.000000 1.000000 0.000000
vn 0.000000 1.000000 0.000000
vn 0.000000 1.000000 0.000000
vn 0.000000 0.000000 -1.000000
vn 0.000000 0.000000 -1.000000
vn 0.000000 0.000000 -1.000000
vn 0.000000 0.000000 -1.000000
vn 0.000000 -1.000000 0.000000
vn 0.000000 -1.000000 0.000000
vn 0.000000 -1.000000 0.000000
vn 0.000000 -1.000000 0.000000
vn 0.000000 0.000000 1.000000
vn 0.000000 0.000000 1.000000
vn 0.000000 0.000000 1.000000
vn 0.000000 0.000000 1.000000
vn 0.000000 1.000000 0.000000
vn 0.000000 1.000000 0.000000
vn 0.000000 1.000000 0.000000
vn 0.000000 1.000000 0.000000
vn 0.000000 1.000000 0.000000
vn 0.000000 1.000000 0.000000
vn 0.000000 1.000000 0.000000
vn 0.000000 1.000000 0.000000
vn 0.000000 1.000000 0.000000
vn 0.000000 1.000000 0.000000
vn 0.000000 1.000000 0.000000
vn 0.000000 1.000000 0.000000
vn 0.000000 1.000000 0.000000
vn 0.000000 1.000000 0.000000
vn 0.000000 1.000000 0.000000
vn 0.000000 1.000000 0.000000
vn -1.000000 0.000000 -0.000000
vn -1.000000 0.000000 -0.000000
vn -1.000000 0.000000 -0.000000
vn -1.000000 0.000000 -0.000000
vn 0.000000 -1.000000 0.000000
vn 0.000000 -1.000000 0.000000
vn 0.000000 -1.000000 0.000000
vn 0.000000 -1.000000 0.000000
vn 0.000000 -1.000000 0.000000
vn 0.000000 -1.000000 0.000000
vn 0.000000 -1.000000 0.000000
vn 0.000000 -1.000000 0.000000
vn 0.000000 -1.000000 0.000000
vn 0.000000 -1.000000 0.000000
vn 0.000000 -1.000000 0.000000
vn 0.000000 -1.000000 0.000000
vn 1.000000 0.000000 0.000000
vn 1.000000 0.000000 0.000000
vn 1.000000 0.000000 0.000000
vn 1.000000 0.000000 0.000000
vn 0.000000 1.000000 0.000000
vn 0.000000 1.000000 0.000000
vn 0.000000 1.000000 0.000000
vn 0.000000 1.000000 0.000000
vn 0.000000 1.000000 0.000000
vn 0.000000 1.000000 0.000000
vn 0.000000 1.000000 0.000000
vn 0.000000 1.000000 0.000000
vn 0.000000 1.000000 0.000000
vn 0.000000 1.000000 0.000000
vn 0.000000 1.000000 0.000000
vn 0.000000 1.000000 0.000000
vn -1.000000 0.000000 -0.000000
vn -1.000000 0.000000 -0.000000
vn -1.000000 0.000000 -0.000000
vn -1.000000 0.000000 -0.000000
vn 0.000000 -1.000000 0.000000
vn 0.000000 -1.000000 0.000000
vn 0.000000 -1.000000 0.000000
vn 0.000000 -1.000000 0.000000
vn 0.000000 -1.000000 0.000000
vn 0.000000 -1.000000 0.000000
vn 0.000000 -1.000000 0.000000
vn 0.000000 -1.000000 0.000000
vn 0.000000 -1.000000 0.000000
vn 0.000000 -1.000000 0.000000
vn 0.000000 -1.000000 0.000000
vn 0.000000 -1.000000 0.000000
vn 1.000000 0.000000 0.000000
vn 1.000000 0.000000 0.000000
vn 1.000000 0.000000 0.000000
vn 1.000000 0.000000 0.000000
vn 1.000000 0.000000 0.000000
vn 1.000000 0.000000 0.000000
vn 1.000000 0.000000 0.000000
vn 1.000000 0.000000 0.000000
vn 0.000000 0.000000 -1.000000
vn 0.000000 0.000000 -1.000000
vn 0.000000 0.000000 -1.000000
vn 0.000000 0.000000 -1.000000
vn -1.000000 0.000000 -0.000000
vn -1.000000 0.000000 -0.000000
vn -1.000000 0.000000 -0.000000
vn -1.000000 0.000000 -0.000000
vn 0.000000 0.000000 1.000000
vn 0.000000 0.000000 1.000000
vn 0.000000 0.000000 1.000000
vn 0.000000 0.000000 1.000000
s off
g door4:pCube6
usemtl initialShadingGroup
f 37/49/137 48/50/138 63/51/139 64/52/140
f 39/53/141 45/54/142 46/55/143 41/56/144
f 65/57/145 66/58/146 47/59/147 43/60/148
f 43/60/149 47/59/150 48/61/151 37/62/152
f 38/63/153 44/64/154 68/65/155 61/66/156
f 43/67/157 37/49/158 64/52/159 65/68/160
f 45/54/161 49/69/162 50/70/163 46/55/164
f 47/59/165 66/58/166 67/71/167 51/72/168
f 48/61/169 47/59/170 51/72/171 52/73/172
f 63/51/173 48/50/174 52/74/175 62/75/176
f 49/69/177 40/76/178 42/77/179 50/70/180
f 51/72/181 67/71/182 68/78/183 44/79/184
f 52/73/185 51/72/186 44/79/187 38/80/188
f 62/75/189 52/74/190 38/63/191 61/66/192
f 49/69/193 54/81/194 53/82/195 40/76/196
f 45/54/197 55/83/198 54/81/199 49/69/200
f 56/84/201 55/83/202 45/54/203 39/53/204
f 57/85/205 56/84/206 39/53/207 41/86/208
f 41/56/209 46/55/210 58/87/211 57/88/212
f 59/89/213 58/87/214 46/55/215 50/70/216
f 60/90/217 59/89/218 50/70/219 42/77/220
f 53/82/221 60/91/222 42/92/223 40/76/224
f 54/81/225 62/75/226 61/66/227 53/82/228
f 70/93/229 69/94/230 71/95/231 72/96/232
f 64/52/233 63/51/234 55/83/235 56/84/236
f 65/68/237 64/52/238 56/84/239 57/85/240
f 57/88/241 58/87/242 66/58/243 65/57/244
f 67/71/245 66/58/246 58/87/247 59/89/248
f 68/78/249 67/71/250 59/89/251 60/90/252
f 61/66/253 68/65/254 60/91/255 53/82/256
f 55/83/257 63/51/258 69/94/259 70/93/260
f 63/51/261 62/75/262 71/95/263 69/94/264
f 62/75/265 54/81/266 72/96/267 71/95/268
f 54/81/269 55/83/270 70/93/271 72/96/272
g default
v 0.529291 0.000000 -0.500000
v -0.529291 0.000000 -0.500000
v 0.529291 0.000000 0.500000
v -0.529291 0.000000 0.500000
v 0.432446 0.000000 -0.500000
v 0.432446 0.000000 0.500000
v -0.411899 0.000000 -0.500000
v -0.411899 0.000000 0.500000
v -0.529291 0.000000 -0.399708
v -0.411899 0.000000 -0.399708
v 0.432446 0.000000 -0.399708
v 0.529291 0.000000 -0.399708
v -0.529291 0.000000 0.418974
v -0.411899 0.000000 0.483248
v 0.432446 0.000000 0.483248
v 0.529291 0.000000 0.418974
v -0.411899 -0.103463 -0.399708
v 0.432446 -0.103463 -0.399708
v -0.411899 -0.103463 0.483248
v 0.432446 -0.103463 0.483248
vt 0.000000 0.000000
vt 0.285133 0.000000
vt 0.285133 0.100292
vt 0.000000 0.100292
vt 0.704658 0.000000
vt 0.704658 0.100292
vt 1.000000 0.000000
vt 1.000000 0.100292
vt 1.000000 0.918974
vt 0.704658 0.918974
vt 0.285133 0.100292
vt 0.704658 0.100292
vt 0.704658 0.918974
vt 0.285133 0.918974
vt 0.285133 0.918974
vt 0.000000 0.918974
vt 1.000000 1.000000
vt 0.704658 1.000000
vt 0.285133 1.000000
vt 0.000000 1.000000
vn 0.000000 1.000000 0.000000
vn 0.000000 1.000000 0.000000
vn 0.000000 1.000000 0.000000
vn 0.000000 1.000000 0.000000
vn 0.000000 1.000000 0.000000
vn 0.000000 1.000000 0.000000
vn 0.000000 1.000000 0.000000
vn 0.000000 1.000000 0.000000
vn 0.000000 1.000000 0.000000
vn 0.000000 1.000000 0.000000
vn 0.000000 1.000000 0.000000
vn 0.000000 1.000000 0.000000
vn 0.000000 1.000000 0.000000
vn 0.000000 1.000000 0.000000
vn 0.000000 1.000000 0.000000
vn 0.000000 1.000000 0.000000
vn 0.000000 1.000000 0.000000
vn 0.000000 1.000000 0.000000
vn 0.000000 1.000000 0.000000
vn 0.000000 1.000000 0.000000
vn 0.000000 1.000000 0.000000
vn 0.000000 1.000000 0.000000
vn 0.000000 1.000000 0.000000
vn 0.000000 1.000000 0.000000
vn 0.000000 1.000000 0.000000
vn 0.000000 1.000000 0.000000
vn 0.000000 1.000000 0.000000
vn 0.000000 1.000000 0.000000
vn 0.000000 1.000000 0.000000
vn 0.000000 1.000000 0.000000
vn 0.000000 1.000000 0.000000
vn 0.000000 1.000000 0.000000
vn 0.000000 1.000000 0.000000
vn 0.000000 1.000000 0.000000
vn 0.000000 1.000000 0.000000
vn 0.000000 1.000000 0.000000
vn 0.000000 0.000000 1.000000
vn 0.000000 0.000000 1.000000
vn 0.000000 0.000000 1.000000
vn 0.000000 0.000000 1.000000
vn 1.000000 0.000000 0.000000
vn 1.000000 0.000000 0.000000
vn 1.000000 0.000000 0.000000
vn 1.000000 0.000000 0.000000
vn 0.000000 0.000000 -1.000000
vn 0.000000 0.000000 -1.000000
vn 0.000000 0.000000 -1.000000
vn 0.000000 0.000000 -1.000000
vn -1.000000 0.000000 -0.000000
vn -1.000000 0.000000 -0.000000
vn -1.000000 0.000000 -0.000000
vn -1.000000 0.000000 -0.000000
s off
g door4:pPlane5
usemtl initialShadingGroup
f 73/97/273 77/98/274 83/99/275 84/100/276
f 77/98/277 79/101/278 82/102/279 83/99/280
f 79/101/281 74/103/282 81/104/283 82/102/284
f 82/102/285 81/104/286 85/105/287 86/106/288
f 90/107/289 89/108/290 91/109/291 92/110/292
f 84/100/293 83/99/294 87/111/295 88/112/296
f 86/106/297 85/105/298 76/113/299 80/114/300
f 87/111/301 86/106/302 80/114/303 78/115/304
f 88/112/305 87/111/306 78/115/307 75/116/308
f 83/99/309 82/102/310 89/108/311 90/107/312
f 82/102/313 86/106/314 91/109/315 89/108/316
f 86/106/317 87/111/318 92/110/319 91/109/320
f 87/111/321 83/99/322 90/107/323 92/110/324
