# This file uses centimeters as units for non-parametric coordinates.

mtllib leaf.mtl
g default
v 0.887128 0.324526 1.493364
v 0.849563 0.461136 1.588955
v 0.310305 0.266500 4.165076
v 0.347578 0.400508 4.148968
v -1.029499 0.326105 4.277768
v -0.916965 0.454970 4.260397
v -0.525425 0.448490 1.659024
v -0.360890 0.591856 1.746336
v 0.689746 0.551624 3.133383
v 0.743128 0.406119 2.988784
v -0.829066 0.549413 3.193346
v -0.652577 0.705427 3.333264
v -0.353399 0.406289 4.590118
v -0.492802 0.219710 4.785494
v 0.344677 0.642121 1.628087
v 0.105271 0.775244 3.357617
v 0.365058 0.322001 4.222039
v -0.483301 0.296782 4.958501
v -1.047871 0.385107 4.347512
v -0.909692 0.604156 3.232519
v -0.527984 0.488989 1.591800
v 0.945463 0.349388 1.412176
v 0.857858 0.449328 3.010208
v 0.285872 -0.011472 -0.145029
v 0.355138 0.077880 -0.267607
v 0.787788 0.090572 0.015108
v 0.724002 0.037421 0.048900
v -0.182946 0.078240 0.130495
v -0.178039 0.133471 0.101934
v -0.104406 0.188806 0.228920
v 0.332759 0.153283 0.086219
v 0.731723 0.152689 0.154203
v 0.294062 0.533631 1.592588
v 0.788950 0.346419 1.531851
v 0.635507 0.420743 3.026921
v 0.059861 0.650665 3.250516
v 0.294194 0.281436 4.037530
v -0.416914 0.241728 4.455709
v -0.708198 0.555302 3.215211
v -0.951851 0.327528 4.141704
v -0.410818 0.453171 1.674380
v 0.251126 -0.011136 0.047668
v 0.666410 0.042135 0.151866
v -0.156172 0.078671 0.225618
v -0.375342 0.613465 3.279031
v -0.103751 0.497337 1.647396
v 0.016220 0.038250 0.149757
v 0.015577 0.038272 0.013614
v 0.047986 0.108728 -0.054349
v 0.080661 0.170997 0.167828
v -0.057857 0.615604 1.698033
v -0.331247 0.740534 3.385169
v -0.695134 0.428985 4.469552
v -0.827032 0.334779 4.736261
v -0.823539 0.269235 4.620385
v -0.741954 0.284756 4.338228
v 0.304531 0.573240 3.202812
v 0.508646 0.466236 1.575471
v 0.421868 0.008720 0.091291
v 0.464980 0.006117 -0.063483
v 0.531932 0.080499 -0.148406
v 0.496352 0.150184 0.114491
v 0.561525 0.573536 1.616514
v 0.349779 0.694495 3.307516
v -0.036487 0.397259 4.454576
v -0.112111 0.297419 4.735813
v -0.136388 0.229735 4.608607
v -0.098764 0.247991 4.324830
vt 0.375000 0.000000
vt 0.510331 0.000000
vt 0.510331 0.126945
vt 0.375000 0.126945
vt 0.375000 0.250000
vt 0.510331 0.250000
vt 0.510331 0.314145
vt 0.375000 0.314145
vt 0.375000 0.623055
vt 0.510331 0.623055
vt 0.510331 0.750000
vt 0.375000 0.750000
vt 0.375000 0.935855
vt 0.510331 0.935855
vt 0.510331 1.000000
vt 0.375000 1.000000
vt 0.625000 0.000000
vt 0.689145 0.000000
vt 0.689145 0.126945
vt 0.625000 0.126945
vt 0.310855 0.000000
vt 0.375000 0.000000
vt 0.375000 0.126945
vt 0.310855 0.126945
vt 0.310855 0.250000
vt 0.375000 0.250000
vt 0.375000 0.500000
vt 0.510331 0.500000
vt 0.689145 0.250000
vt 0.625000 0.250000
vt 0.375000 0.361156
vt 0.510331 0.361156
vt 0.510331 0.441471
vt 0.375000 0.441471
vt 0.183530 0.250000
vt 0.183530 0.126945
vt 0.263844 0.126945
vt 0.263844 0.250000
vt 0.183530 0.000000
vt 0.263844 0.000000
vt 0.375000 0.808529
vt 0.510331 0.808529
vt 0.510331 0.888844
vt 0.375000 0.888844
vt 0.736156 0.126945
vt 0.736156 0.000000
vt 0.816471 0.000000
vt 0.816471 0.126945
vt 0.736156 0.250000
vt 0.816471 0.250000
vt 0.625000 0.314145
vt 0.625000 0.361156
vt 0.625000 0.441471
vt 0.625000 0.500000
vt 0.625000 0.623055
vt 0.625000 0.750000
vt 0.625000 0.808529
vt 0.625000 0.888844
vt 0.625000 0.935855
vt 0.625000 1.000000
vt 0.510331 1.000000
vt 0.375000 1.000000
vt 0.375000 1.000000
vt 0.375000 0.935855
vt 0.375000 0.935855
vt 0.375000 1.000000
vt 0.510331 0.750000
vt 0.375000 0.750000
vt 0.375000 0.888844
vt 0.375000 0.808529
vt 0.375000 0.808529
vt 0.375000 0.888844
vt 0.625000 0.750000
vt 0.625000 0.808529
vt 0.625000 0.888844
vt 0.625000 0.935855
vt 0.625000 1.000000
vt 0.310855 0.250000
vt 0.263844 0.250000
vt 0.183530 0.250000
vt 0.125000 0.250000
vt 0.125000 0.126945
vt 0.125000 0.126945
vt 0.125000 0.250000
vt 0.125000 0.000000
vt 0.125000 0.000000
vt 0.375000 0.750000
vt 0.375000 0.750000
vt 0.875000 0.000000
vt 0.875000 0.126945
vt 0.875000 0.250000
vn 0.460178 -0.883769 0.084788
vn 0.950001 0.308454 -0.048526
vn 0.969124 0.176958 0.171709
vn 0.431094 -0.898390 0.083984
vn 0.433185 -0.823981 0.365248
vn 0.706572 0.105315 0.699760
vn 0.599293 0.219952 0.769720
vn 0.341924 -0.857672 0.384040
vn -0.784380 -0.596880 -0.168768
vn -0.598060 0.794470 -0.105553
vn -0.547621 0.801460 -0.240361
vn -0.858438 -0.491715 -0.145945
vn 0.317545 -0.819878 -0.476408
vn 0.344933 0.669122 -0.658254
vn 0.351860 0.610307 -0.709732
vn 0.330891 -0.802048 -0.497223
vn 0.312018 0.944218 -0.105347
vn 0.282038 0.950693 -0.128984
vn 0.335830 0.932922 0.129904
vn 0.376586 0.920691 0.102526
vn -0.271229 -0.952794 0.136452
vn -0.317376 -0.942179 0.107567
vn -0.387753 -0.914636 -0.114404
vn -0.333202 -0.931709 -0.144550
vn 0.896141 -0.316017 0.311552
vn 0.471889 -0.877570 0.084806
vn -0.278339 -0.895005 -0.348559
vn -0.345975 -0.884341 -0.313436
vn -0.832306 -0.504525 -0.229611
vn -0.825756 0.563999 -0.005711
vn 0.306488 0.893079 0.329356
vn 0.372309 0.875869 0.306985
vn -0.040914 -0.902480 0.428785
vn 0.039868 0.645918 0.762365
vn -0.391191 0.748237 0.535827
vn -0.498390 -0.771717 0.395044
vn 0.062181 -0.958542 -0.278083
vn 0.101578 -0.993001 -0.060255
vn -0.062208 -0.992864 -0.101745
vn -0.074010 -0.940757 -0.330907
vn 0.096311 -0.979653 0.176080
vn -0.035008 -0.984037 0.174486
vn -0.523503 -0.473972 -0.708022
vn -0.276046 0.772955 -0.571260
vn -0.073587 0.762225 -0.643116
vn -0.155404 -0.735818 -0.659106
vn 0.068308 0.994000 0.085433
vn 0.043387 0.985241 -0.165584
vn -0.083195 0.981794 -0.170760
vn -0.084545 0.994985 0.053453
vn 0.071999 0.951190 0.300091
vn -0.072199 0.964265 0.254912
vn 0.414717 0.783638 0.462516
vn 0.301682 0.860719 0.410061
vn 0.052586 0.946713 0.317757
vn -0.118555 0.952142 0.281726
vn -0.403968 0.905690 0.128593
vn -0.378941 0.924425 -0.042918
vn -0.335032 0.924430 -0.182161
vn -0.044187 0.966955 -0.251087
vn 0.016588 0.973713 -0.227174
vn 0.096155 0.962701 -0.252907
vn 0.095737 0.952120 -0.290348
vn 0.597894 0.799031 -0.063817
vn 0.672413 0.725627 0.146035
vn 0.701573 0.625604 0.341196
vn 0.593087 -0.800443 0.086825
vn 0.993983 -0.027476 -0.106035
vn -0.149995 -0.944196 0.293251
vn -0.164961 -0.950100 0.264760
vn -0.664393 0.676445 -0.317810
vn -0.969785 -0.160265 -0.183935
vn 0.058285 -0.947592 0.314122
vn -0.013558 -0.948532 0.316391
vn -0.269477 0.919473 -0.286272
vn 0.016348 0.955990 -0.292945
vn -0.078170 0.954718 -0.287058
vn 0.204551 0.946745 -0.248661
vn 0.196854 0.943065 -0.268100
vn 0.505556 0.835192 -0.216490
vn -0.161840 -0.986185 0.035320
vn -0.161840 -0.986185 0.035320
vn -0.161840 -0.986185 0.035320
vn -0.161840 -0.986185 0.035320
vn -0.114462 -0.979553 -0.165454
vn -0.114462 -0.979553 -0.165454
vn -0.114462 -0.979553 -0.165454
vn -0.114462 -0.979553 -0.165454
vn 0.013975 -0.996721 -0.079698
vn 0.013975 -0.996721 -0.079698
vn 0.013975 -0.996721 -0.079698
vn 0.013975 -0.996721 -0.079698
vn -0.102315 -0.990930 -0.087116
vn -0.102315 -0.990930 -0.087116
vn -0.102315 -0.990930 -0.087116
vn -0.102315 -0.990930 -0.087116
vn -0.101995 -0.965616 -0.239128
vn -0.101995 -0.965616 -0.239128
vn -0.101995 -0.965616 -0.239128
vn -0.101995 -0.965616 -0.239128
vn 0.033310 -0.996824 0.072331
vn 0.033310 -0.996824 0.072331
vn 0.033310 -0.996824 0.072331
vn 0.033310 -0.996824 0.072331
vn 0.103902 -0.992208 0.068763
vn 0.103902 -0.992208 0.068763
vn 0.103902 -0.992208 0.068763
vn 0.103902 -0.992208 0.068763
vn 0.017332 -0.978978 0.203228
vn 0.017332 -0.978978 0.203228
vn 0.017332 -0.978978 0.203228
vn 0.017332 -0.978978 0.203228
vn -0.133245 -0.967421 0.215271
vn -0.133245 -0.967421 0.215271
vn -0.133245 -0.967421 0.215271
vn -0.133245 -0.967421 0.215271
vn -0.202468 -0.979083 -0.020063
vn -0.202468 -0.979083 -0.020063
vn -0.202468 -0.979083 -0.020063
vn -0.202468 -0.979083 -0.020063
vn 0.122748 -0.979350 0.160645
vn 0.148145 -0.988682 -0.023700
vn 0.067445 -0.957762 0.279543
vn 0.067445 -0.957762 0.279543
vn -0.199151 -0.979641 0.025338
vn -0.199151 -0.979641 0.025338
vn -0.199151 -0.979641 0.025338
vn -0.199151 -0.979641 0.025338
vn -0.537237 -0.407585 -0.738411
vn -0.298648 0.726736 -0.618599
vn -0.061124 0.951398 -0.301836
vn -0.086409 0.983986 -0.155900
vn -0.073535 0.958319 -0.276075
vn -0.106817 0.993816 0.030321
vn -0.126749 0.964901 0.230000
vn -0.545485 0.713730 0.439358
vn -0.212355 0.937159 0.276835
vn -0.716926 -0.615049 0.328227
vn -0.123811 -0.988468 -0.087188
vn -0.123811 -0.988468 -0.087188
vn -0.123811 -0.988468 -0.087188
vn -0.123811 -0.988468 -0.087188
vn 0.136760 -0.963980 -0.228121
vn 0.095801 -0.994952 0.029881
vn 0.095801 -0.994952 0.029881
vn 0.095801 -0.994952 0.029881
vn 0.095801 -0.994952 0.029881
vn -0.006322 -0.997756 -0.066662
vn -0.006322 -0.997756 -0.066662
vn -0.006322 -0.997756 -0.066662
vn -0.006322 -0.997756 -0.066662
s 1
g polySurface31 polySurface24
usemtl initialShadingGroup
f 1/1/1 22/2/2 23/3/3 10/4/4
s 2
f 3/5/5 17/6/6 66/7/7 67/8/8
s 3
f 11/9/9 20/10/10 21/11/11 7/12/12
s 4
f 60/13/13 61/14/14 26/15/15 27/16/16
s 5
f 2/17/17 63/18/18 64/19/19 9/20/20
s 6
f 58/21/21 34/22/22 35/23/23 57/24/24
s 1
f 10/4/4 23/3/3 17/6/25 3/5/26
s 6
f 68/25/27 57/24/24 35/23/23 37/26/28
s 3
f 5/27/29 19/28/30 20/10/10 11/9/9
s 5
f 9/20/20 64/19/19 65/29/31 4/30/32
s 2
f 14/31/33 18/32/34 54/33/35 55/34/36
s 6
f 56/35/37 45/36/38 36/37/39 38/38/40
f 46/39/41 33/40/42 36/37/39 45/36/38
s 4
f 48/41/43 49/42/44 25/43/45 24/44/46
s 5
f 16/45/47 15/46/48 51/47/49 52/48/50
f 13/49/51 16/45/47 52/48/50 53/50/52
s 2
f 17/6/6 4/30/53 65/51/54 66/7/7
f 54/33/35 18/32/34 13/52/55 53/53/56
s 3
f 20/10/10 19/28/30 6/54/57 12/55/58
f 21/11/11 20/10/10 12/55/58 8/56/59
s 4
f 25/43/45 49/42/44 50/57/60 31/58/61
f 26/15/15 61/14/14 62/59/62 32/60/63
s 1
f 23/3/3 22/2/2 2/17/64 9/20/65
f 17/6/25 23/3/3 9/20/65 4/30/66
f 22/61/2 1/62/1 27/16/67 26/15/68
s 6
f 34/63/22 58/64/21 59/65/69 43/66/70
s 3
f 7/12/12 21/11/11 29/67/71 28/68/72
s 6
f 33/69/42 46/70/41 47/71/73 42/72/74
s 3
f 21/11/11 8/56/59 30/73/75 29/67/71
s 5
f 51/74/49 15/75/48 31/58/76 50/57/77
f 63/76/18 2/77/17 32/60/78 62/59/79
s 1
f 2/77/64 22/61/2 26/15/68 32/60/80
s off
f 1/1/81 10/4/82 35/23/83 34/22/84
f 10/4/85 3/5/86 37/26/87 35/23/88
f 3/5/89 67/78/90 68/25/91 37/26/92
f 14/79/93 55/80/94 56/35/95 38/38/96
f 5/81/97 11/82/98 39/83/99 40/84/100
f 11/82/101 7/85/102 41/86/103 39/83/104
f 60/13/105 27/16/106 43/66/107 59/65/108
f 27/16/109 1/62/110 34/63/111 43/66/112
f 7/12/113 28/68/114 44/87/115 41/88/116
f 48/41/117 24/44/118 42/72/119 47/71/120
s 6
f 41/86/121 46/39/41 45/36/38 39/83/122
f 47/71/123 46/70/41 41/88/121 44/87/124
s off
f 28/68/125 48/41/126 47/71/127 44/87/128
s 4
f 28/68/129 29/67/130 49/42/44 48/41/43
f 50/57/60 49/42/44 29/67/130 30/73/131
s 5
f 8/56/132 51/74/49 50/57/77 30/73/133
f 52/48/50 51/47/49 8/89/132 12/90/134
f 53/50/52 52/48/50 12/90/134 6/91/135
s 2
f 19/28/136 54/33/35 53/53/56 6/54/137
f 55/34/36 54/33/35 19/28/136 5/27/138
s off
f 56/35/139 55/80/140 5/81/141 40/84/142
s 6
f 39/83/122 45/36/38 56/35/37 40/84/143
f 33/40/42 58/21/21 57/24/24 36/37/39
f 59/65/69 58/64/21 33/69/42 42/72/74
s off
f 24/44/144 60/13/145 59/65/146 42/72/147
s 4
f 24/44/46 25/43/45 61/14/14 60/13/13
f 62/59/62 61/14/14 25/43/45 31/58/61
s 5
f 15/75/48 63/76/18 62/59/79 31/58/76
f 64/19/19 63/18/18 15/46/48 16/45/47
f 65/29/31 64/19/19 16/45/47 13/49/51
s 2
f 66/7/7 65/51/54 13/52/55 18/32/34
f 67/8/8 66/7/7 18/32/34 14/31/33
s off
f 68/25/148 67/78/149 14/79/150 38/38/151
s 6
f 36/37/39 57/24/24 68/25/27 38/38/40
