# This file uses centimeters as units for non-parametric coordinates.

mtllib tallspike.mtl
g default
v 0.074016 0.503137 -0.042733
v 0.042733 0.503137 -0.074016
v 0.000000 0.503137 -0.085467
v -0.042733 0.503137 -0.074016
v -0.074016 0.503137 -0.042733
v -0.085467 0.503137 0.000000
v -0.074016 0.503137 0.042733
v -0.042733 0.503137 0.074016
v 0.000000 0.503137 0.085467
v 0.042733 0.503137 0.074016
v 0.074016 0.503137 0.042733
v 0.085467 0.503137 0.000000
v 0.004847 1.700256 -0.002798
v 0.002798 1.700256 -0.004847
v 0.000000 1.700256 -0.005597
v -0.002798 1.700256 -0.004847
v -0.004847 1.700256 -0.002798
v -0.005597 1.700256 0.000000
v -0.004847 1.700256 0.002798
v -0.002798 1.700256 0.004847
v 0.000000 1.700256 0.005597
v 0.002798 1.700256 0.004847
v 0.004847 1.700256 0.002798
v 0.005597 1.700256 0.000000
v 0.000000 0.503137 0.000000
v 0.000000 1.700256 0.000000
v -0.035529 0.600581 0.061538
v -0.061538 0.600581 0.035529
v -0.071058 0.600581 0.000000
v -0.061538 0.600581 -0.035529
v -0.035529 0.600581 -0.061538
v 0.000000 0.600581 -0.071058
v 0.035529 0.600581 -0.061538
v 0.061538 0.600581 -0.035529
v 0.071058 0.600581 0.000000
v 0.061538 0.600581 0.035529
v 0.035529 0.600581 0.061538
v 0.000000 0.600581 0.071058
v 0.087084 0.494535 -0.050278
v 0.050278 0.494535 -0.087084
v 0.049705 0.609183 -0.086091
v 0.086091 0.609183 -0.049705
v 0.000000 0.494535 -0.100557
v 0.000000 0.609183 -0.099409
v -0.050278 0.494535 -0.087084
v -0.049705 0.609183 -0.086091
v -0.087084 0.494535 -0.050278
v -0.086091 0.609183 -0.049705
v -0.100557 0.494535 0.000000
v -0.099409 0.609183 0.000000
v -0.087084 0.494535 0.050278
v -0.086091 0.609183 0.049705
v -0.050278 0.494535 0.087084
v -0.049705 0.609183 0.086091
v 0.000000 0.494535 0.100557
v 0.000000 0.609183 0.099409
v 0.050278 0.494535 0.087084
v 0.049705 0.609183 0.086091
v 0.087084 0.494535 0.050278
v 0.086091 0.609183 0.049705
v 0.100557 0.494535 0.000000
v 0.099409 0.609183 0.000000
v -0.120892 0.055454 0.120892
v 0.120892 0.055454 0.120892
v -0.120892 0.055454 -0.120892
v 0.120892 0.055454 -0.120892
v -0.104523 0.500774 0.104523
v 0.104523 0.500774 0.104523
v 0.104523 0.500774 -0.104523
v -0.104523 0.500774 -0.104523
v -0.187525 0.424539 0.187525
v 0.187525 0.424539 0.187525
v 0.104523 0.556478 0.104523
v -0.104523 0.556478 0.104523
v 0.187525 0.424539 -0.187525
v 0.104523 0.556478 -0.104523
v -0.187525 0.424539 -0.187525
v -0.104523 0.556478 -0.104523
v -0.187525 0.090725 -0.187525
v 0.187525 0.090725 -0.187525
v 0.187525 0.090725 0.187525
v -0.187525 0.090725 0.187525
v -0.263665 -0.391169 -0.263665
v 0.263665 -0.391169 -0.263665
v -0.263665 0.020876 -0.263665
v 0.263665 0.020876 -0.263665
v -0.263665 -0.391169 0.263665
v -0.263665 0.020876 0.263665
v 0.263665 -0.391169 0.263665
v 0.263665 0.020876 0.263665
vt 0.781768 0.558208
vt 0.781768 0.519423
vt 0.828749 0.520469
vt 0.828749 0.558813
vt 0.937891 0.519423
vt 0.937891 0.572404
vt 0.890909 0.572404
vt 0.890909 0.520027
vt 0.937891 0.625386
vt 0.890909 0.624782
vt 0.836339 0.702957
vt 0.836339 0.664172
vt 0.883320 0.663567
vt 0.883320 0.701910
vt 0.836339 0.611190
vt 0.883320 0.611190
vt 0.836339 0.558208
vt 0.883320 0.558812
vt 0.836339 0.519423
vt 0.883320 0.520469
vt 0.945480 0.625386
vt 0.945480 0.572404
vt 0.992462 0.572404
vt 0.992462 0.624782
vt 0.945480 0.519423
vt 0.992462 0.520027
vt 0.781768 0.702957
vt 0.781768 0.664172
vt 0.828749 0.663567
vt 0.828749 0.701910
vt 0.781768 0.611190
vt 0.828749 0.611190
vt 0.498147 0.743238
vt 0.531112 0.776204
vt 0.453115 0.821235
vt 0.453115 0.731172
vt 0.408084 0.743238
vt 0.375119 0.776204
vt 0.363053 0.821235
vt 0.375119 0.866266
vt 0.408084 0.899231
vt 0.453115 0.911298
vt 0.498147 0.899231
vt 0.531112 0.866266
vt 0.543178 0.821235
vt 0.995059 0.630168
vt 0.997218 0.632327
vt 0.992110 0.635276
vt 0.998008 0.635276
vt 0.997218 0.638225
vt 0.995059 0.640384
vt 0.992110 0.641174
vt 0.989161 0.640384
vt 0.987002 0.638225
vt 0.986212 0.635276
vt 0.987002 0.632327
vt 0.989161 0.630168
vt 0.992110 0.629378
vt 0.104279 0.001867
vt 0.131686 0.001867
vt 0.071947 0.452502
vt 0.069788 0.452502
vt 0.066839 0.001867
vt 0.066839 0.452502
vt 0.029400 0.001867
vt 0.063890 0.452502
vt 0.001992 0.001867
vt 0.061731 0.452502
vt 0.176053 0.452502
vt 0.138614 0.452502
vt 0.173104 0.001867
vt 0.176053 0.001867
vt 0.213493 0.452502
vt 0.179002 0.001867
vt 0.322756 0.001867
vt 0.350164 0.001867
vt 0.290424 0.452502
vt 0.288266 0.452502
vt 0.285317 0.001867
vt 0.285317 0.452502
vt 0.247877 0.001867
vt 0.282368 0.452502
vt 0.220470 0.001867
vt 0.280209 0.452502
vt 0.394336 0.001867
vt 0.431775 0.001867
vt 0.397285 0.452502
vt 0.394336 0.452502
vt 0.356896 0.001867
vt 0.391387 0.452502
vt 0.506097 0.729468
vt 0.544883 0.768253
vt 0.735036 0.586738
vt 0.707629 0.559330
vt 0.722567 0.533457
vt 0.760909 0.571800
vt 0.453115 0.715271
vt 0.745068 0.624177
vt 0.774944 0.624177
vt 0.400133 0.729468
vt 0.735036 0.661617
vt 0.760909 0.676555
vt 0.361348 0.768253
vt 0.707629 0.689024
vt 0.722567 0.714898
vt 0.347151 0.821235
vt 0.670189 0.699056
vt 0.670189 0.728932
vt 0.361348 0.874217
vt 0.632750 0.689024
vt 0.617812 0.714898
vt 0.400133 0.913002
vt 0.605342 0.661617
vt 0.579469 0.676555
vt 0.453115 0.927199
vt 0.595310 0.624177
vt 0.565434 0.624177
vt 0.506097 0.913002
vt 0.605342 0.586738
vt 0.579469 0.571800
vt 0.544883 0.874217
vt 0.632750 0.559330
vt 0.617812 0.533457
vt 0.559079 0.821235
vt 0.670189 0.549298
vt 0.670189 0.519422
vt 0.001992 0.715271
vt 0.222280 0.715271
vt 0.222280 0.935559
vt 0.001992 0.935559
vt 0.644066 0.001867
vt 0.644066 0.256653
vt 0.526939 0.256653
vt 0.526939 0.001867
vt 0.651188 0.001867
vt 0.905974 0.001867
vt 0.905974 0.256654
vt 0.651188 0.256654
vt 0.792694 0.515431
vt 0.792694 0.260645
vt 0.909821 0.260645
vt 0.909821 0.515431
vt 0.531772 0.515431
vt 0.531772 0.260645
vt 0.549022 0.277894
vt 0.549022 0.498182
vt 0.786558 0.260645
vt 0.769309 0.277894
vt 0.786558 0.515431
vt 0.769309 0.498182
vt 0.320323 0.456493
vt 0.437450 0.456493
vt 0.437450 0.711280
vt 0.320323 0.711280
vt 0.253041 0.715271
vt 0.253041 0.935559
vt 0.230214 0.935559
vt 0.230214 0.715271
vt 0.108873 0.456493
vt 0.226001 0.456493
vt 0.226001 0.711280
vt 0.108873 0.711280
vt 0.259449 0.935559
vt 0.259449 0.715271
vt 0.282276 0.715271
vt 0.282276 0.935559
vt 0.288683 0.935559
vt 0.288683 0.715271
vt 0.311510 0.715271
vt 0.311510 0.935559
vt 0.317917 0.935559
vt 0.317917 0.715271
vt 0.340744 0.715271
vt 0.340744 0.935559
vt 0.526939 0.001867
vt 0.526939 0.256653
vt 0.438752 0.256653
vt 0.438752 0.001867
vt 0.226001 0.711280
vt 0.226001 0.456493
vt 0.314188 0.456493
vt 0.314188 0.711280
vt 0.437450 0.711280
vt 0.437450 0.456493
vt 0.525637 0.456493
vt 0.525637 0.711280
vt 0.909821 0.515431
vt 0.909821 0.260645
vt 0.998008 0.260645
vt 0.998008 0.515431
vt 0.644066 0.001867
vt 0.644066 0.256653
vt 0.792694 0.515431
vt 0.792694 0.260645
vt 0.320323 0.711280
vt 0.320323 0.456493
vt 0.108873 0.711280
vt 0.108873 0.456493
vn 0.707074 0.009665 -0.707074
vn 0.707074 0.009665 -0.707074
vn 0.707074 0.009665 -0.707074
vn 0.707074 0.009665 -0.707074
vn 0.258807 0.009665 -0.965881
vn 0.258807 0.009665 -0.965881
vn 0.258807 0.009665 -0.965881
vn 0.258807 0.009665 -0.965881
vn -0.258807 0.009665 -0.965881
vn -0.258807 0.009665 -0.965881
vn -0.258807 0.009665 -0.965881
vn -0.258807 0.009665 -0.965881
vn -0.707074 0.009665 -0.707074
vn -0.707074 0.009665 -0.707074
vn -0.707074 0.009665 -0.707074
vn -0.707074 0.009665 -0.707074
vn -0.965881 0.009665 -0.258807
vn -0.965881 0.009665 -0.258807
vn -0.965881 0.009665 -0.258807
vn -0.965881 0.009665 -0.258807
vn -0.965881 0.009665 0.258807
vn -0.965881 0.009665 0.258807
vn -0.965881 0.009665 0.258807
vn -0.965881 0.009665 0.258807
vn -0.707074 0.009665 0.707074
vn -0.707074 0.009665 0.707074
vn -0.707074 0.009665 0.707074
vn -0.707074 0.009665 0.707074
vn -0.258807 0.009665 0.965881
vn -0.258807 0.009665 0.965881
vn -0.258807 0.009665 0.965881
vn -0.258807 0.009665 0.965881
vn 0.258807 0.009665 0.965881
vn 0.258807 0.009665 0.965881
vn 0.258807 0.009665 0.965881
vn 0.258807 0.009665 0.965881
vn 0.707074 0.009665 0.707074
vn 0.707074 0.009665 0.707074
vn 0.707074 0.009665 0.707074
vn 0.707074 0.009665 0.707074
vn 0.965881 0.009665 0.258807
vn 0.965881 0.009665 0.258807
vn 0.965881 0.009665 0.258807
vn 0.965881 0.009665 0.258807
vn 0.965881 0.009665 -0.258807
vn 0.965881 0.009665 -0.258807
vn 0.965881 0.009665 -0.258807
vn 0.965881 0.009665 -0.258807
vn 0.000000 -1.000000 0.000000
vn 0.000000 -1.000000 0.000000
vn 0.000000 -1.000000 0.000000
vn 0.000000 -1.000000 0.000000
vn 0.000000 -1.000000 0.000000
vn 0.000000 -1.000000 0.000000
vn 0.000000 -1.000000 -0.000001
vn 0.000000 -1.000000 0.000000
vn 0.000000 -1.000000 0.000000
vn 0.000000 -1.000000 -0.000001
vn 0.000000 -1.000000 -0.000001
vn 0.000000 -1.000000 0.000000
vn 0.000000 -1.000000 0.000000
vn 0.000000 -1.000000 -0.000001
vn 0.000000 -1.000000 0.000000
vn 0.000000 -1.000000 0.000000
vn 0.000000 -1.000000 0.000000
vn 0.000000 -1.000000 0.000000
vn 0.000000 -1.000000 0.000000
vn 0.000000 -1.000000 0.000000
vn 0.000000 -1.000000 0.000000
vn 0.000000 -1.000000 0.000000
vn 0.000000 -1.000000 0.000000
vn 0.000000 -1.000000 0.000000
vn 0.000000 -1.000000 0.000001
vn 0.000000 -1.000000 0.000000
vn 0.000000 -1.000000 0.000000
vn 0.000000 -1.000000 0.000001
vn 0.000000 -1.000000 0.000001
vn 0.000000 -1.000000 0.000000
vn 0.000000 -1.000000 0.000000
vn 0.000000 -1.000000 0.000001
vn 0.000000 -1.000000 0.000000
vn 0.000000 -1.000000 0.000000
vn 0.000000 -1.000000 0.000000
vn 0.000000 -1.000000 0.000000
vn 0.000000 1.000000 0.000000
vn 0.000000 1.000000 0.000000
vn 0.000000 1.000000 0.000000
vn 0.000000 1.000000 0.000000
vn 0.000000 1.000000 0.000000
vn 0.000000 1.000000 0.000000
vn 0.000000 1.000000 0.000000
vn 0.000000 1.000000 0.000000
vn 0.000000 1.000000 0.000000
vn 0.000000 1.000000 0.000000
vn 0.000000 1.000000 0.000000
vn 0.000000 1.000000 0.000000
vn 0.000000 1.000000 0.000000
vn 0.000000 1.000000 0.000000
vn 0.000000 1.000000 0.000000
vn 0.000000 1.000000 0.000000
vn 0.000000 1.000000 0.000000
vn 0.000000 1.000000 0.000000
vn 0.000000 1.000000 0.000000
vn 0.000000 1.000000 0.000000
vn 0.000000 1.000000 0.000000
vn 0.000000 1.000000 0.000000
vn 0.000000 1.000000 0.000000
vn 0.000000 1.000000 0.000000
vn 0.000000 1.000000 0.000000
vn 0.000000 1.000000 0.000000
vn 0.000000 1.000000 0.000000
vn 0.000000 1.000000 0.000000
vn 0.000000 1.000000 0.000000
vn 0.000000 1.000000 0.000000
vn 0.000000 1.000000 0.000000
vn 0.000000 1.000000 0.000000
vn 0.000000 1.000000 0.000000
vn 0.000000 1.000000 0.000000
vn 0.000000 1.000000 0.000000
vn 0.000000 1.000000 0.000000
vn -0.705941 0.057404 0.705941
vn -0.705941 0.057404 0.705941
vn -0.705941 0.057404 0.705941
vn -0.705941 0.057404 0.705941
vn -0.964334 0.057404 0.258390
vn -0.964334 0.057404 0.258390
vn -0.964334 0.057404 0.258390
vn -0.964334 0.057404 0.258390
vn -0.964334 0.057404 -0.258390
vn -0.964334 0.057404 -0.258390
vn -0.964334 0.057404 -0.258390
vn -0.964334 0.057404 -0.258390
vn -0.705941 0.057404 -0.705941
vn -0.705941 0.057404 -0.705941
vn -0.705941 0.057404 -0.705941
vn -0.705941 0.057404 -0.705941
vn -0.258390 0.057404 -0.964334
vn -0.258390 0.057404 -0.964334
vn -0.258390 0.057404 -0.964334
vn -0.258390 0.057404 -0.964334
vn 0.258390 0.057404 -0.964334
vn 0.258390 0.057404 -0.964334
vn 0.258390 0.057404 -0.964334
vn 0.258390 0.057404 -0.964334
vn 0.705941 0.057404 -0.705941
vn 0.705941 0.057404 -0.705941
vn 0.705941 0.057404 -0.705941
vn 0.705941 0.057404 -0.705941
vn 0.964334 0.057404 -0.258390
vn 0.964334 0.057404 -0.258390
vn 0.964334 0.057404 -0.258390
vn 0.964334 0.057404 -0.258390
vn 0.964334 0.057404 0.258390
vn 0.964334 0.057404 0.258390
vn 0.964334 0.057404 0.258390
vn 0.964334 0.057404 0.258390
vn 0.705941 0.057404 0.705941
vn 0.705941 0.057404 0.705941
vn 0.705941 0.057404 0.705941
vn 0.705941 0.057404 0.705941
vn 0.258390 0.057404 0.964334
vn 0.258390 0.057404 0.964334
vn 0.258390 0.057404 0.964334
vn 0.258390 0.057404 0.964334
vn -0.258390 0.057404 0.964334
vn -0.258390 0.057404 0.964334
vn -0.258390 0.057404 0.964334
vn -0.258390 0.057404 0.964334
vn -0.359397 -0.861201 0.359398
vn -0.359397 -0.861201 0.359398
vn -0.359397 -0.861201 0.359398
vn -0.359397 -0.861201 0.359398
vn -0.211907 0.954039 0.211906
vn -0.211907 0.954039 0.211906
vn -0.211907 0.954039 0.211906
vn -0.211907 0.954039 0.211906
vn -0.131548 -0.861201 0.490947
vn -0.131548 -0.861201 0.490947
vn -0.131548 -0.861201 0.490947
vn -0.131548 -0.861200 0.490947
vn -0.077563 0.954040 0.289469
vn -0.077563 0.954040 0.289469
vn -0.077563 0.954040 0.289469
vn -0.077563 0.954040 0.289469
vn 0.131548 -0.861201 0.490946
vn 0.131548 -0.861201 0.490946
vn 0.131548 -0.861201 0.490946
vn 0.131548 -0.861201 0.490946
vn 0.077563 0.954039 0.289470
vn 0.077563 0.954039 0.289470
vn 0.077563 0.954039 0.289470
vn 0.077563 0.954039 0.289470
vn 0.359398 -0.861201 0.359398
vn 0.359398 -0.861201 0.359398
vn 0.359398 -0.861201 0.359398
vn 0.359398 -0.861201 0.359398
vn 0.211907 0.954039 0.211907
vn 0.211907 0.954039 0.211907
vn 0.211907 0.954039 0.211907
vn 0.211907 0.954039 0.211907
vn 0.490946 -0.861201 0.131549
vn 0.490946 -0.861201 0.131549
vn 0.490946 -0.861201 0.131549
vn 0.490946 -0.861201 0.131549
vn 0.289471 0.954039 0.077564
vn 0.289471 0.954039 0.077564
vn 0.289471 0.954039 0.077564
vn 0.289471 0.954039 0.077564
vn 0.490946 -0.861201 -0.131549
vn 0.490946 -0.861201 -0.131549
vn 0.490946 -0.861201 -0.131549
vn 0.490946 -0.861201 -0.131549
vn 0.289470 0.954039 -0.077564
vn 0.289471 0.954039 -0.077564
vn 0.289471 0.954039 -0.077564
vn 0.289471 0.954039 -0.077564
vn 0.359397 -0.861201 -0.359398
vn 0.359397 -0.861201 -0.359398
vn 0.359397 -0.861201 -0.359398
vn 0.359397 -0.861201 -0.359398
vn 0.211907 0.954039 -0.211906
vn 0.211907 0.954039 -0.211906
vn 0.211907 0.954039 -0.211906
vn 0.211907 0.954039 -0.211906
vn 0.131548 -0.861201 -0.490947
vn 0.131548 -0.861201 -0.490947
vn 0.131548 -0.861201 -0.490947
vn 0.131548 -0.861200 -0.490947
vn 0.077563 0.954040 -0.289469
vn 0.077563 0.954040 -0.289469
vn 0.077563 0.954040 -0.289469
vn 0.077563 0.954040 -0.289469
vn -0.131548 -0.861201 -0.490946
vn -0.131548 -0.861201 -0.490946
vn -0.131548 -0.861201 -0.490946
vn -0.131548 -0.861201 -0.490946
vn -0.077563 0.954039 -0.289470
vn -0.077563 0.954039 -0.289470
vn -0.077563 0.954039 -0.289470
vn -0.077563 0.954039 -0.289470
vn -0.359398 -0.861201 -0.359398
vn -0.359398 -0.861201 -0.359398
vn -0.359398 -0.861201 -0.359398
vn -0.359398 -0.861201 -0.359398
vn -0.211907 0.954039 -0.211907
vn -0.211907 0.954039 -0.211907
vn -0.211907 0.954039 -0.211907
vn -0.211907 0.954039 -0.211907
vn -0.490946 -0.861201 -0.131549
vn -0.490946 -0.861201 -0.131549
vn -0.490946 -0.861201 -0.131549
vn -0.490946 -0.861201 -0.131549
vn -0.289471 0.954039 -0.077564
vn -0.289471 0.954039 -0.077564
vn -0.289471 0.954039 -0.077564
vn -0.289471 0.954039 -0.077564
vn -0.490946 -0.861201 0.131549
vn -0.490946 -0.861201 0.131549
vn -0.490946 -0.861201 0.131549
vn -0.490946 -0.861201 0.131549
vn -0.289470 0.954039 0.077564
vn -0.289471 0.954039 0.077564
vn -0.289471 0.954039 0.077564
vn -0.289471 0.954039 0.077564
vn 0.000000 1.000000 0.000000
vn 0.000000 1.000000 0.000000
vn 0.000000 1.000000 0.000000
vn 0.000000 1.000000 0.000000
vn 0.000000 0.000000 -1.000000
vn 0.000000 0.000000 -1.000000
vn 0.000000 0.000000 -1.000000
vn 0.000000 0.000000 -1.000000
vn 0.598539 -0.532450 0.598539
vn -0.598539 -0.532450 0.598539
vn -0.598539 -0.532450 -0.598539
vn 0.598539 -0.532450 -0.598539
vn -1.000000 0.000000 0.000000
vn -1.000000 0.000000 0.000000
vn -1.000000 0.000000 0.000000
vn -1.000000 0.000000 0.000000
vn 0.000000 0.532486 0.846439
vn 0.000000 0.532486 0.846439
vn 0.000000 0.532486 0.846439
vn 0.000000 0.532486 0.846439
vn 0.846439 0.532486 0.000000
vn 0.846439 0.532486 0.000000
vn 0.846439 0.532486 0.000000
vn 0.846439 0.532486 0.000000
vn 0.000000 0.532486 -0.846439
vn 0.000000 0.532486 -0.846439
vn 0.000000 0.532486 -0.846439
vn 0.000000 0.532486 -0.846439
vn -0.846439 0.532486 0.000000
vn -0.846439 0.532486 0.000000
vn -0.846439 0.532486 0.000000
vn -0.846439 0.532486 0.000000
vn 0.000000 0.000000 1.000000
vn 0.000000 0.000000 1.000000
vn 0.000000 0.000000 1.000000
vn 0.000000 0.000000 1.000000
vn 0.000000 0.000000 -1.000000
vn 0.000000 0.000000 -1.000000
vn 0.000000 0.000000 -1.000000
vn 0.000000 0.000000 -1.000000
vn 1.000000 0.000000 0.000000
vn 1.000000 0.000000 0.000000
vn 1.000000 0.000000 0.000000
vn 1.000000 0.000000 0.000000
vn -1.000000 0.000000 0.000000
vn -1.000000 0.000000 0.000000
vn -1.000000 0.000000 0.000000
vn -1.000000 0.000000 0.000000
vn 0.000000 0.000000 1.000000
vn 0.000000 0.000000 1.000000
vn 0.000000 0.000000 1.000000
vn 0.000000 0.000000 1.000000
vn 1.000000 0.000000 0.000000
vn 1.000000 0.000000 0.000000
vn 1.000000 0.000000 0.000000
vn 1.000000 0.000000 0.000000
vn 0.000000 0.000000 -1.000000
vn 0.000000 0.000000 -1.000000
vn 0.000000 0.000000 -1.000000
vn 0.000000 0.000000 -1.000000
vn 1.000000 0.000000 0.000000
vn 1.000000 0.000000 0.000000
vn 1.000000 0.000000 0.000000
vn 1.000000 0.000000 0.000000
vn 0.000000 0.000000 1.000000
vn 0.000000 0.000000 1.000000
vn 0.000000 0.000000 1.000000
vn 0.000000 0.000000 1.000000
vn -1.000000 0.000000 0.000000
vn -1.000000 0.000000 0.000000
vn -1.000000 0.000000 0.000000
vn -1.000000 0.000000 0.000000
vn -0.598539 -0.532450 0.598539
vn 0.598539 -0.532450 0.598539
vn 0.644323 -0.411943 0.644322
vn -0.644323 -0.411943 0.644323
vn -0.384814 0.838950 -0.384814
vn 0.384814 0.838950 -0.384814
vn 0.384814 0.838950 -0.384814
vn -0.384814 0.838950 -0.384813
vn 0.598539 -0.532450 0.598539
vn 0.598539 -0.532450 -0.598539
vn 0.644323 -0.411943 -0.644322
vn 0.644323 -0.411943 0.644322
vn -0.384814 0.838950 0.384814
vn -0.384814 0.838950 -0.384814
vn -0.384814 0.838950 -0.384813
vn -0.384814 0.838950 0.384813
vn 0.384814 0.838950 0.384814
vn -0.384814 0.838950 0.384814
vn -0.384814 0.838950 0.384813
vn 0.384814 0.838950 0.384814
vn 0.598539 -0.532450 -0.598539
vn -0.598539 -0.532450 -0.598539
vn -0.644323 -0.411943 -0.644323
vn 0.644323 -0.411943 -0.644322
vn 0.384814 0.838950 -0.384814
vn 0.384814 0.838950 0.384814
vn 0.384814 0.838950 0.384814
vn 0.384814 0.838950 -0.384814
vn -0.598539 -0.532450 -0.598539
vn -0.598539 -0.532450 0.598539
vn -0.644323 -0.411943 0.644323
vn -0.644323 -0.411943 -0.644323
s off
g tallspike:pCylinder2
usemtl tallspike:initialShadingGroup
f 39/1/1 40/2/2 41/3/3 42/4/4
f 40/5/5 43/6/6 44/7/7 41/8/8
f 43/6/9 45/9/10 46/10/11 44/7/12
f 45/11/13 47/12/14 48/13/15 46/14/16
f 47/12/17 49/15/18 50/16/19 48/13/20
f 49/15/21 51/17/22 52/18/23 50/16/24
f 51/17/25 53/19/26 54/20/27 52/18/28
f 53/21/29 55/22/30 56/23/31 54/24/32
f 55/22/33 57/25/34 58/26/35 56/23/36
f 57/27/37 59/28/38 60/29/39 58/30/40
f 59/28/41 61/31/42 62/32/43 60/29/44
f 61/31/45 39/1/46 42/4/47 62/32/48
f 2/33/49 1/34/50 25/35/51
f 3/36/52 2/33/53 25/35/54
f 4/37/55 3/36/56 25/35/57
f 5/38/58 4/37/59 25/35/60
f 6/39/61 5/38/62 25/35/63
f 7/40/64 6/39/65 25/35/66
f 8/41/67 7/40/68 25/35/69
f 9/42/70 8/41/71 25/35/72
f 10/43/73 9/42/74 25/35/75
f 11/44/76 10/43/77 25/35/78
f 12/45/79 11/44/80 25/35/81
f 1/34/82 12/45/83 25/35/84
f 13/46/85 14/47/86 26/48/87
f 14/47/88 15/49/89 26/48/90
f 15/49/91 16/50/92 26/48/93
f 16/50/94 17/51/95 26/48/96
f 17/51/97 18/52/98 26/48/99
f 18/52/100 19/53/101 26/48/102
f 19/53/103 20/54/104 26/48/105
f 20/54/106 21/55/107 26/48/108
f 21/55/109 22/56/110 26/48/111
f 22/56/112 23/57/113 26/48/114
f 23/57/115 24/58/116 26/48/117
f 24/58/118 13/46/119 26/48/120
f 28/59/121 27/60/122 20/61/123 19/62/124
f 29/63/125 28/59/126 19/62/127 18/64/128
f 30/65/129 29/63/130 18/64/131 17/66/132
f 31/67/133 30/65/134 17/66/135 16/68/136
f 32/69/137 31/70/138 16/71/139 15/72/140
f 33/73/141 32/69/142 15/72/143 14/74/144
f 34/75/145 33/76/146 14/77/147 13/78/148
f 35/79/149 34/75/150 13/78/151 24/80/152
f 36/81/153 35/79/154 24/80/155 23/82/156
f 37/83/157 36/81/158 23/82/159 22/84/160
f 38/85/161 37/86/162 22/87/163 21/88/164
f 27/89/165 38/85/166 21/88/167 20/90/168
f 1/34/169 2/33/170 40/91/171 39/92/172
f 33/93/173 34/94/174 42/95/175 41/96/176
f 2/33/177 3/36/178 43/97/179 40/91/180
f 32/98/181 33/93/182 41/96/183 44/99/184
f 3/36/185 4/37/186 45/100/187 43/97/188
f 31/101/189 32/98/190 44/99/191 46/102/192
f 4/37/193 5/38/194 47/103/195 45/100/196
f 30/104/197 31/101/198 46/102/199 48/105/200
f 5/38/201 6/39/202 49/106/203 47/103/204
f 29/107/205 30/104/206 48/105/207 50/108/208
f 6/39/209 7/40/210 51/109/211 49/106/212
f 28/110/213 29/107/214 50/108/215 52/111/216
f 7/40/217 8/41/218 53/112/219 51/109/220
f 27/113/221 28/110/222 52/111/223 54/114/224
f 8/41/225 9/42/226 55/115/227 53/112/228
f 38/116/229 27/113/230 54/114/231 56/117/232
f 9/42/233 10/43/234 57/118/235 55/115/236
f 37/119/237 38/116/238 56/117/239 58/120/240
f 10/43/241 11/44/242 59/121/243 57/118/244
f 36/122/245 37/119/246 58/120/247 60/123/248
f 11/44/249 12/45/250 61/124/251 59/121/252
f 35/125/253 36/122/254 60/123/255 62/126/256
f 12/45/257 1/34/258 39/92/259 61/124/260
f 34/94/261 35/125/262 62/126/263 42/95/264
f 67/127/265 68/128/266 69/129/267 70/130/268
f 84/131/269 83/132/270 85/133/271 86/134/272
f 65/135/273 66/136/274 64/137/275 63/138/276
f 83/139/277 87/140/278 88/141/279 85/142/280
f 71/143/281 72/144/282 73/145/283 74/146/284
f 72/144/285 75/147/286 76/148/287 73/145/288
f 75/147/289 77/149/290 78/150/291 76/148/292
f 77/149/293 71/143/294 74/146/295 78/150/296
f 89/151/297 90/152/298 88/153/299 87/154/300
f 68/155/301 67/156/302 74/157/303 73/158/304
f 84/159/305 86/160/306 90/161/307 89/162/308
f 69/163/309 68/164/310 73/165/311 76/166/312
f 70/167/313 69/168/314 76/169/315 78/170/316
f 67/171/317 70/172/318 78/173/319 74/174/320
f 80/175/321 79/176/322 77/177/323 75/178/324
f 81/179/325 80/180/326 75/181/327 72/182/328
f 82/183/329 81/184/330 72/185/331 71/186/332
f 79/187/333 82/188/334 71/189/335 77/190/336
f 66/191/337 65/192/338 83/132/339 84/131/340
f 79/176/341 80/175/342 86/134/343 85/133/344
f 65/193/345 63/194/346 87/140/347 83/139/348
f 82/188/349 79/187/350 85/142/351 88/141/352
f 81/184/353 82/183/354 88/153/355 90/152/356
f 63/195/357 64/196/358 89/151/359 87/154/360
f 80/180/361 81/179/362 90/161/363 86/160/364
f 64/197/365 66/198/366 84/159/367 89/162/368
