# This file uses centimeters as units for non-parametric coordinates.

mtllib tallspike.mtl
g default
v 0.074016 0.706546 -0.042733
v 0.042733 0.706546 -0.074016
v 0.000000 0.706546 -0.085467
v -0.042733 0.706546 -0.074016
v -0.074016 0.706546 -0.042733
v -0.085467 0.706546 0.000000
v -0.074016 0.706546 0.042733
v -0.042733 0.706546 0.074016
v 0.000000 0.706546 0.085467
v 0.042733 0.706546 0.074016
v 0.074016 0.706546 0.042733
v 0.085467 0.706546 0.000000
v 0.004847 1.903665 -0.002798
v 0.002798 1.903665 -0.004847
v 0.000000 1.903665 -0.005597
v -0.002798 1.903665 -0.004847
v -0.004847 1.903665 -0.002798
v -0.005597 1.903665 0.000000
v -0.004847 1.903665 0.002798
v -0.002798 1.903665 0.004847
v 0.000000 1.903665 0.005597
v 0.002798 1.903665 0.004847
v 0.004847 1.903665 0.002798
v 0.005597 1.903665 0.000000
v 0.000000 0.706546 0.000000
v 0.000000 1.903665 0.000000
v -0.035529 0.803990 0.061538
v -0.061538 0.803990 0.035529
v -0.071058 0.803990 0.000000
v -0.061538 0.803990 -0.035529
v -0.035529 0.803990 -0.061538
v 0.000000 0.803990 -0.071058
v 0.035529 0.803990 -0.061538
v 0.061538 0.803990 -0.035529
v 0.071058 0.803990 0.000000
v 0.061538 0.803990 0.035529
v 0.035529 0.803990 0.061538
v 0.000000 0.803990 0.071058
v 0.087084 0.697944 -0.050278
v 0.050278 0.697944 -0.087084
v 0.049705 0.812592 -0.086091
v 0.086091 0.812592 -0.049705
v 0.000000 0.697944 -0.100557
v 0.000000 0.812592 -0.099409
v -0.050278 0.697944 -0.087084
v -0.049705 0.812592 -0.086091
v -0.087084 0.697944 -0.050278
v -0.086091 0.812592 -0.049705
v -0.100557 0.697944 0.000000
v -0.099409 0.812592 0.000000
v -0.087084 0.697944 0.050278
v -0.086091 0.812592 0.049705
v -0.050278 0.697944 0.087084
v -0.049705 0.812592 0.086091
v 0.000000 0.697944 0.100557
v 0.000000 0.812592 0.099409
v 0.050278 0.697944 0.087084
v 0.049705 0.812592 0.086091
v 0.087084 0.697944 0.050278
v 0.086091 0.812592 0.049705
v 0.100557 0.697944 0.000000
v 0.099409 0.812592 0.000000
v -0.120892 0.258863 0.120892
v 0.120892 0.258863 0.120892
v -0.120892 0.258863 -0.120892
v 0.120892 0.258863 -0.120892
v -0.104523 0.704183 0.104523
v 0.104523 0.704183 0.104523
v 0.104523 0.704183 -0.104523
v -0.104523 0.704183 -0.104523
v -0.187525 0.627948 0.187525
v 0.187525 0.627948 0.187525
v 0.104523 0.759887 0.104523
v -0.104523 0.759887 0.104523
v 0.187525 0.627948 -0.187525
v 0.104523 0.759887 -0.104523
v -0.187525 0.627948 -0.187525
v -0.104523 0.759887 -0.104523
v -0.187525 0.294134 -0.187525
v 0.187525 0.294134 -0.187525
v 0.187525 0.294134 0.187525
v -0.187525 0.294134 0.187525
v -0.263665 -0.187760 -0.263665
v 0.263665 -0.187760 -0.263665
v -0.263665 0.224285 -0.263665
v 0.263665 0.224285 -0.263665
v -0.263665 -0.187760 0.263665
v -0.263665 0.224285 0.263665
v 0.263665 -0.187760 0.263665
v 0.263665 0.224285 0.263665
vt 0.836339 0.664172
vt 0.836339 0.611190
vt 0.883320 0.611190
vt 0.883320 0.663567
vt 0.836339 0.558208
vt 0.883320 0.558812
vt 0.836339 0.702957
vt 0.883320 0.701910
vt 0.836339 0.519423
vt 0.883320 0.520469
vt 0.781768 0.664172
vt 0.781768 0.611190
vt 0.828749 0.611190
vt 0.828749 0.663567
vt 0.781768 0.558208
vt 0.828749 0.558813
vt 0.781768 0.702957
vt 0.828749 0.701910
vt 0.781768 0.519423
vt 0.828749 0.520469
vt 0.066839 0.001867
vt 0.104279 0.001867
vt 0.069788 0.452502
vt 0.066839 0.452502
vt 0.131686 0.001867
vt 0.071947 0.452502
vt 0.029400 0.001867
vt 0.063890 0.452502
vt 0.001992 0.001867
vt 0.061731 0.452502
vt 0.285317 0.001867
vt 0.322756 0.001867
vt 0.288266 0.452502
vt 0.285317 0.452502
vt 0.350164 0.001867
vt 0.290424 0.452502
vt 0.247877 0.001867
vt 0.282368 0.452502
vt 0.220470 0.001867
vt 0.280209 0.452502
vt 0.792694 0.515431
vt 0.792694 0.260645
vt 0.998008 0.260645
vt 0.998008 0.515431
vt 0.108873 0.456493
vt 0.314188 0.456493
vt 0.314188 0.711280
vt 0.108873 0.711280
vt 0.259449 0.935559
vt 0.259449 0.715271
vt 0.282276 0.715271
vt 0.282276 0.935559
vt 0.317917 0.935559
vt 0.317917 0.715271
vt 0.340744 0.715271
vt 0.340744 0.935559
vt 0.498147 0.743238
vt 0.531112 0.776204
vt 0.453115 0.821235
vt 0.506097 0.729468
vt 0.544883 0.768253
vt 0.543178 0.821235
vt 0.453115 0.731172
vt 0.453115 0.715271
vt 0.559079 0.821235
vt 0.531112 0.866266
vt 0.408084 0.743238
vt 0.400133 0.729468
vt 0.544883 0.874217
vt 0.498147 0.899231
vt 0.375119 0.776204
vt 0.361348 0.768253
vt 0.506097 0.913002
vt 0.453115 0.911298
vt 0.363053 0.821235
vt 0.347151 0.821235
vt 0.453115 0.927199
vt 0.408084 0.899231
vt 0.375119 0.866266
vt 0.361348 0.874217
vt 0.400133 0.913002
vt 0.995059 0.630168
vt 0.997218 0.632327
vt 0.992110 0.635276
vt 0.998008 0.635276
vt 0.992110 0.629378
vt 0.997218 0.638225
vt 0.989161 0.630168
vt 0.995059 0.640384
vt 0.987002 0.632327
vt 0.992110 0.641174
vt 0.986212 0.635276
vt 0.989161 0.640384
vt 0.987002 0.638225
vt 0.735036 0.586738
vt 0.707629 0.559330
vt 0.722567 0.533457
vt 0.760909 0.571800
vt 0.670189 0.549298
vt 0.670189 0.519422
vt 0.745068 0.624177
vt 0.774944 0.624177
vt 0.632750 0.559330
vt 0.617812 0.533457
vt 0.735036 0.661617
vt 0.760909 0.676555
vt 0.605342 0.586738
vt 0.579469 0.571800
vt 0.707629 0.689024
vt 0.722567 0.714898
vt 0.595310 0.624177
vt 0.565434 0.624177
vt 0.670189 0.699056
vt 0.670189 0.728932
vt 0.605342 0.661617
vt 0.579469 0.676555
vt 0.632750 0.689024
vt 0.617812 0.714898
vt 0.001992 0.715271
vt 0.222280 0.715271
vt 0.222280 0.935559
vt 0.001992 0.935559
vt 0.651188 0.001867
vt 0.905974 0.001867
vt 0.905974 0.256654
vt 0.651188 0.256654
vt 0.531772 0.515431
vt 0.531772 0.260645
vt 0.549022 0.277894
vt 0.549022 0.498182
vt 0.786558 0.260645
vt 0.769309 0.277894
vt 0.786558 0.515431
vt 0.769309 0.498182
vt 0.937891 0.519423
vt 0.937891 0.572404
vt 0.890909 0.572404
vt 0.890909 0.520027
vt 0.937891 0.625386
vt 0.890909 0.624782
vt 0.945480 0.625386
vt 0.945480 0.572404
vt 0.992462 0.572404
vt 0.992462 0.624782
vt 0.945480 0.519423
vt 0.992462 0.520027
vt 0.176053 0.452502
vt 0.138614 0.452502
vt 0.173104 0.001867
vt 0.176053 0.001867
vt 0.213493 0.452502
vt 0.179002 0.001867
vt 0.394336 0.001867
vt 0.431775 0.001867
vt 0.397285 0.452502
vt 0.394336 0.452502
vt 0.356896 0.001867
vt 0.391387 0.452502
vt 0.644066 0.001867
vt 0.644066 0.256653
vt 0.438752 0.256653
vt 0.438752 0.001867
vt 0.320323 0.456493
vt 0.525637 0.456493
vt 0.525637 0.711280
vt 0.320323 0.711280
vt 0.253041 0.715271
vt 0.253041 0.935559
vt 0.230214 0.935559
vt 0.230214 0.715271
vt 0.288683 0.935559
vt 0.288683 0.715271
vt 0.311510 0.715271
vt 0.311510 0.935559
vt 0.526939 0.256653
vt 0.909821 0.515431
vt 0.226001 0.456493
vt 0.526939 0.001867
vt 0.437450 0.456493
vt 0.226001 0.711280
vt 0.909821 0.260645
vt 0.437450 0.711280
vt 0.644066 0.001867
vt 0.644066 0.256653
vt 0.526939 0.256653
vt 0.526939 0.001867
vt 0.792694 0.515431
vt 0.792694 0.260645
vt 0.909821 0.260645
vt 0.909821 0.515431
vt 0.437450 0.456493
vt 0.437450 0.711280
vt 0.320323 0.711280
vt 0.320323 0.456493
vt 0.226001 0.456493
vt 0.226001 0.711280
vt 0.108873 0.711280
vt 0.108873 0.456493
vn 0.707074 0.009665 -0.707074
vn 0.707074 0.009665 -0.707074
vn 0.707074 0.009665 -0.707074
vn 0.707074 0.009665 -0.707074
vn 0.258807 0.009665 -0.965881
vn 0.258807 0.009665 -0.965881
vn 0.258807 0.009665 -0.965881
vn 0.258807 0.009665 -0.965881
vn -0.258807 0.009665 -0.965881
vn -0.258807 0.009665 -0.965881
vn -0.258807 0.009665 -0.965881
vn -0.258807 0.009665 -0.965881
vn -0.707074 0.009665 -0.707074
vn -0.707074 0.009665 -0.707074
vn -0.707074 0.009665 -0.707074
vn -0.707074 0.009665 -0.707074
vn -0.965881 0.009665 -0.258807
vn -0.965881 0.009665 -0.258807
vn -0.965881 0.009665 -0.258807
vn -0.965881 0.009665 -0.258807
vn -0.965881 0.009665 0.258807
vn -0.965881 0.009665 0.258807
vn -0.965881 0.009665 0.258807
vn -0.965881 0.009665 0.258807
vn -0.707074 0.009665 0.707074
vn -0.707074 0.009665 0.707074
vn -0.707074 0.009665 0.707074
vn -0.707074 0.009665 0.707074
vn -0.258807 0.009665 0.965881
vn -0.258807 0.009665 0.965881
vn -0.258807 0.009665 0.965881
vn -0.258807 0.009665 0.965881
vn 0.258807 0.009665 0.965881
vn 0.258807 0.009665 0.965881
vn 0.258807 0.009665 0.965881
vn 0.258807 0.009665 0.965881
vn 0.707074 0.009665 0.707074
vn 0.707074 0.009665 0.707074
vn 0.707074 0.009665 0.707074
vn 0.707074 0.009665 0.707074
vn 0.965881 0.009665 0.258807
vn 0.965881 0.009665 0.258807
vn 0.965881 0.009665 0.258807
vn 0.965881 0.009665 0.258807
vn 0.965881 0.009665 -0.258807
vn 0.965881 0.009665 -0.258807
vn 0.965881 0.009665 -0.258807
vn 0.965881 0.009665 -0.258807
vn 0.000000 -1.000000 -0.000000
vn 0.000000 -1.000000 -0.000000
vn 0.000000 -1.000000 0.000000
vn 0.000000 -1.000000 0.000000
vn 0.000000 -1.000000 -0.000001
vn 0.000000 -1.000000 -0.000001
vn 0.000000 -1.000000 0.000000
vn 0.000000 -1.000000 0.000000
vn 0.000000 -1.000000 0.000000
vn 0.000000 -1.000000 0.000000
vn 0.000000 -1.000000 0.000001
vn 0.000000 -1.000000 0.000001
vn 0.000000 -1.000000 0.000000
vn 0.000000 1.000000 0.000000
vn 0.000000 1.000000 0.000000
vn 0.000000 1.000000 0.000000
vn 0.000000 1.000000 0.000000
vn 0.000000 1.000000 0.000000
vn 0.000000 1.000000 0.000000
vn 0.000000 1.000000 0.000000
vn 0.000000 1.000000 0.000000
vn 0.000000 1.000000 0.000000
vn 0.000000 1.000000 0.000000
vn 0.000000 1.000000 0.000000
vn 0.000000 1.000000 0.000000
vn 0.000000 1.000000 0.000000
vn -0.705941 0.057404 0.705941
vn -0.705941 0.057404 0.705941
vn -0.705941 0.057404 0.705941
vn -0.705941 0.057404 0.705941
vn -0.964334 0.057404 0.258390
vn -0.964334 0.057404 0.258390
vn -0.964334 0.057404 0.258390
vn -0.964334 0.057404 0.258390
vn -0.964334 0.057404 -0.258390
vn -0.964334 0.057404 -0.258390
vn -0.964334 0.057404 -0.258390
vn -0.964334 0.057404 -0.258390
vn -0.705941 0.057404 -0.705941
vn -0.705941 0.057404 -0.705941
vn -0.705941 0.057404 -0.705941
vn -0.705941 0.057404 -0.705941
vn -0.258390 0.057404 -0.964334
vn -0.258390 0.057404 -0.964334
vn -0.258390 0.057404 -0.964333
vn -0.258390 0.057404 -0.964334
vn 0.258390 0.057404 -0.964334
vn 0.258390 0.057404 -0.964334
vn 0.258390 0.057404 -0.964334
vn 0.258390 0.057404 -0.964333
vn 0.705941 0.057404 -0.705941
vn 0.705941 0.057404 -0.705941
vn 0.705941 0.057404 -0.705941
vn 0.705941 0.057404 -0.705941
vn 0.964334 0.057404 -0.258390
vn 0.964334 0.057404 -0.258390
vn 0.964334 0.057404 -0.258390
vn 0.964334 0.057404 -0.258390
vn 0.964334 0.057404 0.258390
vn 0.964334 0.057404 0.258390
vn 0.964334 0.057404 0.258390
vn 0.964334 0.057404 0.258390
vn 0.705941 0.057404 0.705941
vn 0.705941 0.057404 0.705941
vn 0.705941 0.057404 0.705941
vn 0.705941 0.057404 0.705941
vn 0.258390 0.057404 0.964334
vn 0.258390 0.057404 0.964334
vn 0.258390 0.057404 0.964333
vn 0.258390 0.057404 0.964334
vn -0.258390 0.057404 0.964334
vn -0.258390 0.057404 0.964334
vn -0.258390 0.057404 0.964334
vn -0.258390 0.057404 0.964333
vn -0.359397 -0.861201 0.359398
vn -0.359397 -0.861201 0.359398
vn -0.359397 -0.861201 0.359398
vn -0.359397 -0.861201 0.359398
vn -0.211907 0.954039 0.211906
vn -0.211907 0.954039 0.211906
vn -0.211907 0.954039 0.211906
vn -0.211907 0.954039 0.211906
vn -0.131548 -0.861201 0.490947
vn -0.131548 -0.861201 0.490947
vn -0.131548 -0.861201 0.490947
vn -0.131548 -0.861200 0.490947
vn -0.077563 0.954040 0.289469
vn -0.077563 0.954040 0.289469
vn -0.077563 0.954040 0.289469
vn -0.077563 0.954040 0.289469
vn 0.131548 -0.861201 0.490946
vn 0.131548 -0.861201 0.490946
vn 0.131548 -0.861201 0.490946
vn 0.131548 -0.861201 0.490946
vn 0.077563 0.954039 0.289470
vn 0.077563 0.954039 0.289470
vn 0.077563 0.954039 0.289470
vn 0.077563 0.954039 0.289470
vn 0.359398 -0.861201 0.359398
vn 0.359398 -0.861201 0.359398
vn 0.359398 -0.861201 0.359398
vn 0.359398 -0.861201 0.359398
vn 0.211907 0.954039 0.211907
vn 0.211907 0.954039 0.211907
vn 0.211907 0.954039 0.211907
vn 0.211907 0.954039 0.211907
vn 0.490946 -0.861201 0.131549
vn 0.490946 -0.861201 0.131549
vn 0.490946 -0.861201 0.131549
vn 0.490946 -0.861201 0.131549
vn 0.289471 0.954039 0.077564
vn 0.289471 0.954039 0.077564
vn 0.289471 0.954039 0.077564
vn 0.289471 0.954039 0.077564
vn 0.490946 -0.861201 -0.131549
vn 0.490946 -0.861201 -0.131549
vn 0.490946 -0.861201 -0.131549
vn 0.490946 -0.861201 -0.131549
vn 0.289470 0.954039 -0.077564
vn 0.289471 0.954039 -0.077564
vn 0.289471 0.954039 -0.077564
vn 0.289471 0.954039 -0.077564
vn 0.359397 -0.861201 -0.359398
vn 0.359397 -0.861201 -0.359398
vn 0.359397 -0.861201 -0.359398
vn 0.359397 -0.861201 -0.359398
vn 0.211907 0.954039 -0.211906
vn 0.211907 0.954039 -0.211906
vn 0.211907 0.954039 -0.211906
vn 0.211907 0.954039 -0.211906
vn 0.131548 -0.861201 -0.490947
vn 0.131548 -0.861201 -0.490947
vn 0.131548 -0.861201 -0.490947
vn 0.131548 -0.861200 -0.490947
vn 0.077563 0.954040 -0.289469
vn 0.077563 0.954040 -0.289469
vn 0.077563 0.954040 -0.289469
vn 0.077563 0.954040 -0.289469
vn -0.131548 -0.861201 -0.490946
vn -0.131548 -0.861201 -0.490946
vn -0.131548 -0.861201 -0.490946
vn -0.131548 -0.861201 -0.490946
vn -0.077563 0.954039 -0.289470
vn -0.077563 0.954039 -0.289470
vn -0.077563 0.954039 -0.289470
vn -0.077563 0.954039 -0.289470
vn -0.359398 -0.861201 -0.359398
vn -0.359398 -0.861201 -0.359398
vn -0.359398 -0.861201 -0.359398
vn -0.359398 -0.861201 -0.359398
vn -0.211907 0.954039 -0.211907
vn -0.211907 0.954039 -0.211907
vn -0.211907 0.954039 -0.211907
vn -0.211907 0.954039 -0.211907
vn -0.490946 -0.861201 -0.131549
vn -0.490946 -0.861201 -0.131549
vn -0.490946 -0.861201 -0.131549
vn -0.490946 -0.861201 -0.131549
vn -0.289471 0.954039 -0.077564
vn -0.289471 0.954039 -0.077564
vn -0.289471 0.954039 -0.077564
vn -0.289471 0.954039 -0.077564
vn -0.490946 -0.861201 0.131549
vn -0.490946 -0.861201 0.131549
vn -0.490946 -0.861201 0.131549
vn -0.490946 -0.861201 0.131549
vn -0.289470 0.954039 0.077564
vn -0.289471 0.954039 0.077564
vn -0.289471 0.954039 0.077564
vn -0.289471 0.954039 0.077564
vn 0.000000 1.000000 0.000000
vn 0.000000 1.000000 0.000000
vn 0.000000 1.000000 0.000000
vn 0.000000 1.000000 0.000000
vn 0.000000 0.000000 -1.000000
vn 0.000000 0.000000 -1.000000
vn 0.000000 0.000000 -1.000000
vn 0.000000 0.000000 -1.000000
vn 0.598539 -0.532450 0.598539
vn -0.598539 -0.532450 0.598539
vn -0.598539 -0.532450 -0.598539
vn 0.598539 -0.532450 -0.598539
vn -1.000000 0.000000 0.000000
vn -1.000000 0.000000 0.000000
vn -1.000000 0.000000 0.000000
vn -1.000000 0.000000 0.000000
vn 0.000000 0.532486 0.846439
vn 0.000000 0.532486 0.846439
vn 0.000000 0.532486 0.846439
vn 0.000000 0.532486 0.846439
vn 0.846439 0.532486 0.000000
vn 0.846439 0.532486 0.000000
vn 0.846439 0.532486 0.000000
vn 0.846439 0.532486 0.000000
vn 0.000000 0.532486 -0.846439
vn 0.000000 0.532486 -0.846439
vn 0.000000 0.532486 -0.846439
vn 0.000000 0.532486 -0.846439
vn -0.846439 0.532486 0.000000
vn -0.846439 0.532486 0.000000
vn -0.846439 0.532486 0.000000
vn -0.846439 0.532486 0.000000
vn 0.000000 0.000000 1.000000
vn 0.000000 0.000000 1.000000
vn 0.000000 0.000000 1.000000
vn 0.000000 0.000000 1.000000
vn 0.000000 0.000000 -1.000000
vn 0.000000 0.000000 -1.000000
vn 0.000000 0.000000 -1.000000
vn 0.000000 0.000000 -1.000000
vn 1.000000 0.000000 0.000000
vn 1.000000 0.000000 0.000000
vn 1.000000 0.000000 0.000000
vn 1.000000 0.000000 0.000000
vn -1.000000 0.000000 0.000000
vn -1.000000 0.000000 0.000000
vn -1.000000 0.000000 0.000000
vn -1.000000 0.000000 0.000000
vn 0.000000 0.000000 1.000000
vn 0.000000 0.000000 1.000000
vn 0.000000 0.000000 1.000000
vn 0.000000 0.000000 1.000000
vn 1.000000 0.000000 0.000000
vn 1.000000 0.000000 0.000000
vn 1.000000 0.000000 0.000000
vn 1.000000 0.000000 0.000000
vn 0.000000 0.000000 -1.000000
vn 0.000000 0.000000 -1.000000
vn 0.000000 0.000000 -1.000000
vn 0.000000 0.000000 -1.000000
vn 1.000000 0.000000 0.000000
vn 1.000000 0.000000 0.000000
vn 1.000000 0.000000 0.000000
vn 1.000000 0.000000 0.000000
vn 0.000000 0.000000 1.000000
vn 0.000000 0.000000 1.000000
vn 0.000000 0.000000 1.000000
vn 0.000000 0.000000 1.000000
vn -1.000000 0.000000 0.000000
vn -1.000000 0.000000 0.000000
vn -1.000000 0.000000 0.000000
vn -1.000000 0.000000 0.000000
vn 0.644323 -0.411943 0.644322
vn -0.644323 -0.411943 0.644323
vn -0.384814 0.838950 -0.384814
vn 0.384814 0.838950 -0.384814
vn 0.384814 0.838950 -0.384814
vn -0.384814 0.838950 -0.384813
vn 0.644323 -0.411943 -0.644322
vn -0.384814 0.838950 0.384814
vn -0.384814 0.838950 0.384813
vn 0.384814 0.838950 0.384814
vn 0.384814 0.838950 0.384814
vn -0.644323 -0.411943 -0.644323
s off
g pCylinder2
usemtl initialShadingGroup
f 39/15/1 40/19/2 41/20/3 42/16/4
f 40/135/5 43/136/6 44/137/7 41/138/8
f 43/136/9 45/139/10 46/140/11 44/137/12
f 45/7/13 47/1/14 48/4/15 46/8/16
f 47/1/17 49/2/18 50/3/19 48/4/20
f 49/2/21 51/5/22 52/6/23 50/3/24
f 51/5/25 53/9/26 54/10/27 52/6/28
f 53/141/29 55/142/30 56/143/31 54/144/32
f 55/142/33 57/145/34 58/146/35 56/143/36
f 57/17/37 59/11/38 60/14/39 58/18/40
f 59/11/41 61/12/42 62/13/43 60/14/44
f 61/12/45 39/15/46 42/16/47 62/13/48
s 1
f 2/57/49 1/58/50 25/59/51
f 3/63/52 2/57/49 25/59/51
f 4/67/53 3/63/52 25/59/51
f 5/71/54 4/67/53 25/59/51
f 6/75/55 5/71/54 25/59/51
f 7/79/56 6/75/55 25/59/51
f 8/78/57 7/79/56 25/59/51
f 9/74/58 8/78/57 25/59/51
f 10/70/59 9/74/58 25/59/51
f 11/66/60 10/70/59 25/59/51
f 12/62/61 11/66/60 25/59/51
f 1/58/50 12/62/61 25/59/51
s 2
f 13/82/62 14/83/63 26/84/64
f 14/83/63 15/85/65 26/84/64
f 15/85/65 16/87/66 26/84/64
f 16/87/66 17/89/67 26/84/64
f 17/89/67 18/91/68 26/84/64
f 18/91/68 19/93/69 26/84/64
f 19/93/69 20/94/70 26/84/64
f 20/94/70 21/92/71 26/84/64
f 21/92/71 22/90/72 26/84/64
f 22/90/72 23/88/73 26/84/64
f 23/88/73 24/86/74 26/84/64
f 24/86/74 13/82/62 26/84/64
s off
f 28/22/75 27/25/76 20/26/77 19/23/78
f 29/21/79 28/22/80 19/23/81 18/24/82
f 30/27/83 29/21/84 18/24/85 17/28/86
f 31/29/87 30/27/88 17/28/89 16/30/90
f 32/147/91 31/148/92 16/149/93 15/150/94
f 33/151/95 32/147/96 15/150/97 14/152/98
f 34/32/99 33/35/100 14/36/101 13/33/102
f 35/31/103 34/32/104 13/33/105 24/34/106
f 36/37/107 35/31/108 24/34/109 23/38/110
f 37/39/111 36/37/112 23/38/113 22/40/114
f 38/153/115 37/154/116 22/155/117 21/156/118
f 27/157/119 38/153/120 21/156/121 20/158/122
f 1/58/123 2/57/124 40/60/125 39/61/126
f 33/95/127 34/96/128 42/97/129 41/98/130
f 2/57/131 3/63/132 43/64/133 40/60/134
f 32/101/135 33/95/136 41/98/137 44/102/138
f 3/63/139 4/67/140 45/68/141 43/64/142
f 31/105/143 32/101/144 44/102/145 46/106/146
f 4/67/147 5/71/148 47/72/149 45/68/150
f 30/109/151 31/105/152 46/106/153 48/110/154
f 5/71/155 6/75/156 49/76/157 47/72/158
f 29/113/159 30/109/160 48/110/161 50/114/162
f 6/75/163 7/79/164 51/80/165 49/76/166
f 28/117/167 29/113/168 50/114/169 52/118/170
f 7/79/171 8/78/172 53/81/173 51/80/174
f 27/115/175 28/117/176 52/118/177 54/116/178
f 8/78/179 9/74/180 55/77/181 53/81/182
f 38/111/183 27/115/184 54/116/185 56/112/186
f 9/74/187 10/70/188 57/73/189 55/77/190
f 37/107/191 38/111/192 56/112/193 58/108/194
f 10/70/195 11/66/196 59/69/197 57/73/198
f 36/103/199 37/107/200 58/108/201 60/104/202
f 11/66/203 12/62/204 61/65/205 59/69/206
f 35/99/207 36/103/208 60/104/209 62/100/210
f 12/62/211 1/58/212 39/61/213 61/65/214
f 34/96/215 35/99/216 62/100/217 42/97/218
f 67/119/219 68/120/220 69/121/221 70/122/222
f 84/183/223 83/184/224 85/185/225 86/186/226
s 3
f 65/123/227 66/124/228 64/125/229 63/126/230
s off
f 83/187/231 87/188/232 88/189/233 85/190/234
f 71/127/235 72/128/236 73/129/237 74/130/238
f 72/128/239 75/131/240 76/132/241 73/129/242
f 75/131/243 77/133/244 78/134/245 76/132/246
f 77/133/247 71/127/248 74/130/249 78/134/250
f 89/194/251 90/191/252 88/192/253 87/193/254
f 68/167/255 67/168/256 74/169/257 73/170/258
f 84/198/259 86/195/260 90/196/261 89/197/262
f 69/49/263 68/50/264 73/51/265 76/52/266
f 70/171/267 69/172/268 76/173/269 78/174/270
f 67/53/271 70/54/272 78/55/273 74/56/274
f 80/178/275 79/175/276 77/161/277 75/162/278
f 81/180/279 80/177/280 75/46/281 72/47/282
f 82/182/283 81/179/284 72/164/285 71/165/286
f 79/176/287 82/181/288 71/43/289 77/44/290
s 3
f 66/159/228 65/160/227 83/184/291 84/183/292
s 4
f 79/175/293 80/178/294 86/186/295 85/185/296
s 3
f 65/41/227 63/42/230 87/188/297 83/187/291
s 4
f 82/181/298 79/176/293 85/190/296 88/189/299
f 81/179/300 82/182/298 88/192/299 90/191/301
s 3
f 63/166/230 64/163/229 89/194/302 87/193/297
s 4
f 80/177/294 81/180/300 90/196/301 86/195/295
s 3
f 64/48/229 66/45/228 84/198/292 89/197/302
