# This file uses centimeters as units for non-parametric coordinates.

mtllib watertower.mtl
g default
v 0.236545 0.285113 -0.077447
v 0.200947 0.285113 -0.147313
v 0.145501 0.285113 -0.202758
v 0.075635 0.285113 -0.238357
v -0.001812 0.285113 -0.250623
v -0.079259 0.285113 -0.238357
v -0.149124 0.285113 -0.202758
v -0.204570 0.285113 -0.147313
v -0.240169 0.285113 -0.077447
v -0.252435 0.285113 0.000000
v -0.240169 0.285113 0.077447
v -0.204570 0.285113 0.147313
v -0.149124 0.285113 0.202758
v -0.079259 0.285113 0.238357
v -0.001812 0.285113 0.250623
v 0.075635 0.285113 0.238357
v 0.145501 0.285113 0.202758
v 0.200946 0.285113 0.147313
v 0.236545 0.285113 0.077447
v 0.248811 0.285113 0.000000
v -0.001812 0.463561 0.000000
v 0.235252 -0.315566 -0.105547
v 0.171826 -0.315566 -0.192845
v 0.078378 -0.315566 -0.246798
v -0.028937 -0.315566 -0.258077
v -0.131561 -0.315566 -0.224732
v -0.211750 -0.315566 -0.152529
v -0.255640 -0.315566 -0.053953
v -0.255640 -0.315566 0.053953
v -0.211750 -0.315566 0.152529
v -0.131561 -0.315566 0.224732
v -0.028937 -0.315566 0.258077
v 0.078378 -0.315566 0.246798
v 0.171826 -0.315566 0.192845
v 0.235252 -0.315566 0.105548
v 0.257686 -0.315566 0.000000
v 0.235252 0.284928 -0.105547
v 0.171826 0.284928 -0.192845
v 0.078378 0.284928 -0.246798
v -0.028937 0.284928 -0.258077
v -0.131561 0.284928 -0.224732
v -0.211750 0.284928 -0.152529
v -0.255640 0.284928 -0.053953
v -0.255640 0.284928 0.053953
v -0.211750 0.284928 0.152529
v -0.131561 0.284928 0.224732
v -0.028937 0.284928 0.258077
v 0.078378 0.284928 0.246798
v 0.171826 0.284928 0.192845
v 0.235252 0.284928 0.105548
v 0.257686 0.284928 0.000000
v -0.001812 -0.315566 0.000000
v -0.001812 0.284928 0.000000
v -0.247328 -0.336168 0.245756
v 0.249782 -0.336168 0.245756
v -0.247328 -0.315024 0.245756
v 0.249782 -0.315024 0.245756
v -0.247328 -0.315024 -0.251354
v 0.249782 -0.315024 -0.251354
v -0.247328 -0.336168 -0.251354
v 0.249782 -0.336168 -0.251354
v 0.249782 -0.336168 -0.226998
v -0.247328 -0.336168 -0.226998
v -0.247328 -0.315024 -0.226998
v 0.249782 -0.315024 -0.226998
v 0.249782 -0.336168 0.219128
v -0.247328 -0.336168 0.219128
v -0.247328 -0.315024 0.219128
v 0.249782 -0.315024 0.219128
v 0.216232 -0.336168 0.245756
v 0.216232 -0.315024 0.245756
v 0.216232 -0.315024 0.219128
v 0.216232 -0.315024 -0.226998
v 0.216232 -0.315024 -0.251354
v 0.216232 -0.336168 -0.251354
v 0.216232 -0.336168 -0.226998
v 0.216232 -0.336168 0.219128
v -0.216030 -0.336168 0.245756
v -0.216030 -0.315024 0.245756
v -0.216030 -0.315024 0.219128
v -0.216030 -0.315024 -0.226998
v -0.216030 -0.315024 -0.251354
v -0.216030 -0.336168 -0.251354
v -0.216030 -0.336168 -0.226998
v -0.216030 -0.336168 0.219128
v -0.247328 -0.530513 -0.251354
v -0.216030 -0.530513 -0.251354
v -0.216030 -0.530513 -0.226998
v -0.247328 -0.530513 -0.226998
v -0.216030 -0.530513 0.219128
v -0.247328 -0.530513 0.219128
v -0.216030 -0.530513 0.245756
v -0.247328 -0.530513 0.245756
v 0.216232 -0.530513 -0.251354
v 0.216232 -0.530513 -0.226998
v 0.249782 -0.530513 -0.251354
v 0.249782 -0.530513 -0.226998
v 0.216232 -0.530513 0.219128
v 0.216232 -0.530513 0.245756
v 0.249782 -0.530513 0.219128
v 0.249782 -0.530513 0.245756
vt 0.737764 0.172746
vt 0.750000 0.250000
vt 0.737764 0.327254
vt 0.702254 0.396946
vt 0.646946 0.452254
vt 0.577254 0.487764
vt 0.500000 0.500000
vt 0.422746 0.487764
vt 0.353054 0.452254
vt 0.297746 0.396946
vt 0.262236 0.327254
vt 0.250000 0.250000
vt 0.262236 0.172746
vt 0.297746 0.103054
vt 0.353054 0.047746
vt 0.422746 0.012236
vt 0.500000 -0.000000
vt 0.577254 0.012236
vt 0.646946 0.047746
vt 0.702254 0.103054
vt 0.250000 0.500000
vt 0.275000 0.500000
vt 0.500000 1.000000
vt 0.300000 0.500000
vt 0.325000 0.500000
vt 0.350000 0.500000
vt 0.375000 0.500000
vt 0.400000 0.500000
vt 0.425000 0.500000
vt 0.450000 0.500000
vt 0.475000 0.500000
vt 0.500000 0.500000
vt 0.525000 0.500000
vt 0.550000 0.500000
vt 0.575000 0.500000
vt 0.600000 0.500000
vt 0.625000 0.500000
vt 0.650000 0.500000
vt 0.675000 0.500000
vt 0.700000 0.500000
vt 0.725000 0.500000
vt 0.750000 0.500000
vt 0.375000 0.312500
vt 0.391667 0.312500
vt 0.391667 0.688440
vt 0.375000 0.688440
vt 0.408333 0.312500
vt 0.408333 0.688440
vt 0.425000 0.312500
vt 0.425000 0.688440
vt 0.441667 0.312500
vt 0.441667 0.688440
vt 0.458333 0.312500
vt 0.458333 0.688440
vt 0.475000 0.312500
vt 0.475000 0.688440
vt 0.491667 0.312500
vt 0.491667 0.688440
vt 0.508333 0.312500
vt 0.508333 0.688440
vt 0.525000 0.312500
vt 0.525000 0.688440
vt 0.541667 0.312500
vt 0.541667 0.688440
vt 0.558333 0.312500
vt 0.558333 0.688440
vt 0.575000 0.312500
vt 0.575000 0.688440
vt 0.591667 0.312500
vt 0.591667 0.688440
vt 0.608333 0.312500
vt 0.608333 0.688440
vt 0.625000 0.312500
vt 0.625000 0.688440
vt 0.604552 0.040134
vt 0.642741 0.092697
vt 0.500000 0.150000
vt 0.548284 0.007647
vt 0.483667 0.000856
vt 0.421875 0.020934
vt 0.373591 0.064409
vt 0.347164 0.123764
vt 0.347164 0.188736
vt 0.373591 0.248091
vt 0.421875 0.291566
vt 0.483667 0.311644
vt 0.548284 0.304853
vt 0.604552 0.272366
vt 0.642741 0.219803
vt 0.656250 0.156250
vt 0.642741 0.907303
vt 0.604552 0.959866
vt 0.500000 0.837500
vt 0.548284 0.992353
vt 0.483667 0.999144
vt 0.421875 0.979066
vt 0.373591 0.935591
vt 0.347164 0.876236
vt 0.347164 0.811264
vt 0.373591 0.751909
vt 0.421875 0.708434
vt 0.483667 0.688356
vt 0.548284 0.695147
vt 0.604552 0.727634
vt 0.642741 0.780197
vt 0.656250 0.843750
vt 0.375000 0.000000
vt 0.390740 0.000000
vt 0.390740 0.250000
vt 0.375000 0.250000
vt 0.375000 0.487751
vt 0.390740 0.487751
vt 0.390740 0.500000
vt 0.375000 0.500000
vt 0.390740 0.750000
vt 0.375000 0.750000
vt 0.375000 0.750000
vt 0.390740 0.750000
vt 0.390740 0.762249
vt 0.375000 0.762249
vt 0.862751 0.250000
vt 0.862751 0.000000
vt 0.875000 0.000000
vt 0.875000 0.250000
vt 0.125000 0.000000
vt 0.137249 0.000000
vt 0.137249 0.250000
vt 0.125000 0.250000
vt 0.375000 0.762249
vt 0.390740 0.762249
vt 0.390740 0.986609
vt 0.375000 0.986609
vt 0.361609 0.000000
vt 0.361609 0.250000
vt 0.375000 0.263391
vt 0.390740 0.263391
vt 0.638391 0.250000
vt 0.638391 0.000000
vt 0.375000 0.986609
vt 0.390740 0.986609
vt 0.390740 1.000000
vt 0.375000 1.000000
vt 0.625000 0.000000
vt 0.625000 0.250000
vt 0.608127 0.000000
vt 0.608127 0.250000
vt 0.608127 0.263391
vt 0.625000 0.263391
vt 0.608127 0.487751
vt 0.625000 0.487751
vt 0.608127 0.500000
vt 0.625000 0.500000
vt 0.608127 0.750000
vt 0.625000 0.750000
vt 0.608127 0.762249
vt 0.608127 0.750000
vt 0.625000 0.750000
vt 0.625000 0.762249
vt 0.608127 0.986609
vt 0.608127 0.762249
vt 0.625000 0.762249
vt 0.625000 0.986609
vt 0.608127 1.000000
vt 0.608127 0.986609
vt 0.625000 0.986609
vt 0.625000 1.000000
vt 0.390740 1.000000
vt 0.608127 1.000000
vt 0.375000 1.000000
vt 0.625000 1.000000
vn 0.000000 -1.000000 0.000000
vn 0.000000 -1.000000 0.000000
vn 0.000000 -1.000000 0.000000
vn 0.000000 -1.000000 0.000000
vn 0.000000 -1.000000 0.000000
vn 0.000000 -1.000000 0.000000
vn 0.000000 -1.000000 0.000000
vn 0.000000 -1.000000 0.000000
vn 0.000000 -1.000000 0.000000
vn 0.000000 -1.000000 0.000000
vn 0.000000 -1.000000 0.000000
vn 0.000000 -1.000000 0.000000
vn 0.000000 -1.000000 0.000000
vn 0.000000 -1.000000 0.000000
vn 0.000000 -1.000000 0.000000
vn 0.000000 -1.000000 0.000000
vn 0.000000 -1.000000 0.000000
vn 0.000000 -1.000000 0.000000
vn 0.000000 -1.000000 0.000000
vn 0.000000 -1.000000 0.000000
vn 0.551625 0.814607 -0.179234
vn 0.469240 0.814607 -0.340923
vn -0.000000 1.000000 -0.000000
vn 0.340923 0.814607 -0.469240
vn 0.179234 0.814607 -0.551625
vn -0.000000 0.814607 -0.580013
vn -0.179234 0.814607 -0.551625
vn -0.340923 0.814607 -0.469240
vn -0.469240 0.814607 -0.340923
vn -0.551625 0.814607 -0.179234
vn -0.580013 0.814607 0.000000
vn -0.551625 0.814607 0.179234
vn -0.469240 0.814607 0.340923
vn -0.340923 0.814607 0.469241
vn -0.179234 0.814607 0.551625
vn 0.000000 0.814607 0.580013
vn 0.179234 0.814607 0.551625
vn 0.340923 0.814607 0.469240
vn 0.469241 0.814607 0.340923
vn 0.551625 0.814607 0.179234
vn 0.580013 0.814607 0.000000
vn 0.913545 0.000000 -0.406737
vn 0.669131 0.000000 -0.743145
vn 0.669131 0.000000 -0.743145
vn 0.913545 0.000000 -0.406737
vn 0.309017 0.000000 -0.951056
vn 0.309017 0.000000 -0.951056
vn -0.104528 0.000000 -0.994522
vn -0.104528 0.000000 -0.994522
vn -0.500000 0.000000 -0.866026
vn -0.500000 0.000000 -0.866026
vn -0.809017 0.000000 -0.587785
vn -0.809017 0.000000 -0.587785
vn -0.978148 0.000000 -0.207912
vn -0.978148 0.000000 -0.207912
vn -0.978148 0.000000 0.207912
vn -0.978148 0.000000 0.207912
vn -0.809017 0.000000 0.587785
vn -0.809017 0.000000 0.587785
vn -0.500000 0.000000 0.866025
vn -0.500000 0.000000 0.866025
vn -0.104529 0.000000 0.994522
vn -0.104529 0.000000 0.994522
vn 0.309017 0.000000 0.951057
vn 0.309017 0.000000 0.951057
vn 0.669131 0.000000 0.743145
vn 0.669131 0.000000 0.743145
vn 0.913545 0.000000 0.406737
vn 0.913545 0.000000 0.406737
vn 1.000000 0.000000 -0.000000
vn 1.000000 0.000000 -0.000000
vn 0.000000 -1.000000 0.000000
vn 0.000000 -1.000000 0.000000
vn 0.000000 -1.000000 -0.000000
vn 0.000000 -1.000000 0.000000
vn 0.000000 -1.000000 -0.000000
vn 0.000000 -1.000000 -0.000000
vn 0.000000 -1.000000 0.000000
vn 0.000000 -1.000000 0.000000
vn 0.000000 -1.000000 -0.000000
vn 0.000000 -1.000000 -0.000000
vn 0.000000 -1.000000 0.000000
vn 0.000000 -1.000000 0.000000
vn 0.000000 -1.000000 -0.000000
vn 0.000000 -1.000000 0.000000
vn 0.000000 -1.000000 -0.000000
vn 0.000000 -1.000000 -0.000000
vn 0.000000 1.000000 0.000000
vn 0.000000 1.000000 0.000000
vn 0.000000 1.000000 0.000000
vn 0.000000 1.000000 0.000000
vn 0.000000 1.000000 -0.000000
vn 0.000000 1.000000 -0.000000
vn 0.000000 1.000000 0.000000
vn 0.000000 1.000000 0.000000
vn 0.000000 1.000000 0.000000
vn 0.000000 1.000000 0.000000
vn 0.000000 1.000000 0.000000
vn 0.000000 1.000000 0.000000
vn 0.000000 1.000000 -0.000000
vn 0.000000 1.000000 0.000000
vn 0.000000 1.000000 0.000000
vn 0.000000 1.000000 0.000000
vn 0.000000 0.000000 1.000000
vn 0.000000 0.000000 1.000000
vn 0.000000 0.000000 1.000000
vn 0.000000 0.000000 1.000000
vn 0.000000 1.000000 0.000000
vn 0.000000 1.000000 0.000000
vn 0.000000 1.000000 0.000000
vn 0.000000 1.000000 0.000000
vn 0.000000 0.000000 -1.000000
vn 0.000000 0.000000 -1.000000
vn 0.000000 0.000000 -1.000000
vn 0.000000 0.000000 -1.000000
vn 0.000000 -1.000000 0.000000
vn 0.000000 -1.000000 0.000000
vn 0.000000 -1.000000 0.000000
vn 0.000000 -1.000000 0.000000
vn 1.000000 0.000000 0.000000
vn 1.000000 0.000000 0.000000
vn 1.000000 0.000000 0.000000
vn 1.000000 0.000000 0.000000
vn -1.000000 0.000000 0.000000
vn -1.000000 0.000000 0.000000
vn -1.000000 0.000000 0.000000
vn -1.000000 0.000000 0.000000
vn 0.000000 -1.000000 0.000000
vn 0.000000 -1.000000 0.000000
vn 0.000000 -1.000000 0.000000
vn 0.000000 -1.000000 0.000000
vn -1.000000 0.000000 0.000000
vn -1.000000 0.000000 0.000000
vn 0.000000 1.000000 0.000000
vn 0.000000 1.000000 0.000000
vn 1.000000 0.000000 0.000000
vn 1.000000 0.000000 0.000000
vn 0.000000 -1.000000 0.000000
vn 0.000000 -1.000000 0.000000
vn 0.000000 -1.000000 0.000000
vn 0.000000 -1.000000 0.000000
vn -1.000000 0.000000 0.000000
vn -1.000000 0.000000 0.000000
vn 0.000000 1.000000 0.000000
vn 0.000000 1.000000 0.000000
vn 1.000000 0.000000 0.000000
vn 1.000000 0.000000 0.000000
vn 0.000000 0.000000 1.000000
vn 0.000000 0.000000 1.000000
vn 0.000000 0.000000 1.000000
vn 0.000000 0.000000 1.000000
vn 0.000000 1.000000 0.000000
vn 0.000000 1.000000 0.000000
vn 0.000000 1.000000 0.000000
vn 0.000000 1.000000 0.000000
vn 0.000000 1.000000 0.000000
vn 0.000000 1.000000 0.000000
vn 0.000000 1.000000 0.000000
vn 0.000000 1.000000 0.000000
vn 0.000000 0.000000 -1.000000
vn 0.000000 0.000000 -1.000000
vn 0.000000 0.000000 -1.000000
vn 0.000000 0.000000 -1.000000
vn 0.000000 -1.000000 0.000000
vn 0.000000 -1.000000 0.000000
vn 0.000000 -1.000000 0.000000
vn 0.000000 -1.000000 0.000000
vn 0.000000 -1.000000 0.000000
vn 0.000000 -1.000000 0.000000
vn 0.000000 -1.000000 0.000000
vn 0.000000 -1.000000 0.000000
vn 0.000000 -1.000000 0.000000
vn 0.000000 -1.000000 0.000000
vn 0.000000 -1.000000 0.000000
vn 0.000000 -1.000000 0.000000
vn 0.000000 -1.000000 0.000000
vn 0.000000 -1.000000 0.000000
vn 0.000000 -1.000000 0.000000
vn 0.000000 -1.000000 0.000000
vn 0.000000 0.000000 -1.000000
vn 0.000000 0.000000 -1.000000
vn 0.000000 0.000000 -1.000000
vn 0.000000 0.000000 -1.000000
vn 1.000000 0.000000 0.000000
vn 1.000000 0.000000 0.000000
vn 1.000000 0.000000 0.000000
vn 1.000000 0.000000 0.000000
vn 0.000000 0.000000 1.000000
vn 0.000000 0.000000 1.000000
vn 0.000000 0.000000 1.000000
vn 0.000000 0.000000 1.000000
vn -1.000000 0.000000 0.000000
vn -1.000000 0.000000 0.000000
vn -1.000000 0.000000 0.000000
vn -1.000000 0.000000 0.000000
vn 0.000000 0.000000 -1.000000
vn 0.000000 0.000000 -1.000000
vn 0.000000 0.000000 -1.000000
vn 0.000000 0.000000 -1.000000
vn 1.000000 0.000000 0.000000
vn 1.000000 0.000000 0.000000
vn 1.000000 0.000000 0.000000
vn 1.000000 0.000000 0.000000
vn 0.000000 0.000000 1.000000
vn 0.000000 0.000000 1.000000
vn 0.000000 0.000000 1.000000
vn 0.000000 0.000000 1.000000
vn -1.000000 0.000000 0.000000
vn -1.000000 0.000000 0.000000
vn -1.000000 0.000000 0.000000
vn -1.000000 0.000000 0.000000
vn -1.000000 0.000000 0.000000
vn -1.000000 0.000000 0.000000
vn -1.000000 0.000000 0.000000
vn -1.000000 0.000000 0.000000
vn 0.000000 0.000000 -1.000000
vn 0.000000 0.000000 -1.000000
vn 0.000000 0.000000 -1.000000
vn 0.000000 0.000000 -1.000000
vn 1.000000 0.000000 0.000000
vn 1.000000 0.000000 0.000000
vn 1.000000 0.000000 0.000000
vn 1.000000 0.000000 0.000000
vn 0.000000 0.000000 1.000000
vn 0.000000 0.000000 1.000000
vn 0.000000 0.000000 1.000000
vn 0.000000 0.000000 1.000000
vn -1.000000 0.000000 0.000000
vn -1.000000 0.000000 0.000000
vn -1.000000 0.000000 0.000000
vn -1.000000 0.000000 0.000000
vn 0.000000 0.000000 -1.000000
vn 0.000000 0.000000 -1.000000
vn 0.000000 0.000000 -1.000000
vn 0.000000 0.000000 -1.000000
vn 1.000000 0.000000 0.000000
vn 1.000000 0.000000 0.000000
vn 1.000000 0.000000 0.000000
vn 1.000000 0.000000 0.000000
vn 0.000000 0.000000 1.000000
vn 0.000000 0.000000 1.000000
vn 0.000000 0.000000 1.000000
vn 0.000000 0.000000 1.000000
s off
g polySurface1753
usemtl initialShadingGroup
f 1/1/1 20/2/2 19/3/3 18/4/4 17/5/5 16/6/6 15/7/7 14/8/8 13/9/9 12/10/10 11/11/11 10/12/12 9/13/13 8/14/14 7/15/15 6/16/16 5/17/17 4/18/18 3/19/19 2/20/20
s 1
f 1/21/21 2/22/22 21/23/23
f 2/22/22 3/24/24 21/23/23
f 3/24/24 4/25/25 21/23/23
f 4/25/25 5/26/26 21/23/23
f 5/26/26 6/27/27 21/23/23
f 6/27/27 7/28/28 21/23/23
f 7/28/28 8/29/29 21/23/23
f 8/29/29 9/30/30 21/23/23
f 9/30/30 10/31/31 21/23/23
f 10/31/31 11/32/32 21/23/23
f 11/32/32 12/33/33 21/23/23
f 12/33/33 13/34/34 21/23/23
f 13/34/34 14/35/35 21/23/23
f 14/35/35 15/36/36 21/23/23
f 15/36/36 16/37/37 21/23/23
f 16/37/37 17/38/38 21/23/23
f 17/38/38 18/39/39 21/23/23
f 18/39/39 19/40/40 21/23/23
f 19/40/40 20/41/41 21/23/23
f 20/41/41 1/42/21 21/23/23
s 2
f 22/43/42 23/44/43 38/45/44 37/46/45
f 23/44/43 24/47/46 39/48/47 38/45/44
f 24/47/46 25/49/48 40/50/49 39/48/47
f 25/49/48 26/51/50 41/52/51 40/50/49
f 26/51/50 27/53/52 42/54/53 41/52/51
f 27/53/52 28/55/54 43/56/55 42/54/53
f 28/55/54 29/57/56 44/58/57 43/56/55
f 29/57/56 30/59/58 45/60/59 44/58/57
f 30/59/58 31/61/60 46/62/61 45/60/59
f 31/61/60 32/63/62 47/64/63 46/62/61
f 32/63/62 33/65/64 48/66/65 47/64/63
f 33/65/64 34/67/66 49/68/67 48/66/65
f 34/67/66 35/69/68 50/70/69 49/68/67
f 35/69/68 36/71/70 51/72/71 50/70/69
f 36/71/70 22/73/42 37/74/45 51/72/71
s 3
f 23/75/72 22/76/73 52/77/74
f 24/78/75 23/75/72 52/77/74
f 25/79/76 24/78/75 52/77/74
f 26/80/77 25/79/76 52/77/74
f 27/81/78 26/80/77 52/77/74
f 28/82/79 27/81/78 52/77/74
f 29/83/80 28/82/79 52/77/74
f 30/84/81 29/83/80 52/77/74
f 31/85/82 30/84/81 52/77/74
f 32/86/83 31/85/82 52/77/74
f 33/87/84 32/86/83 52/77/74
f 34/88/85 33/87/84 52/77/74
f 35/89/86 34/88/85 52/77/74
f 36/90/87 35/89/86 52/77/74
f 22/76/73 36/90/87 52/77/74
s 4
f 37/91/88 38/92/89 53/93/90
f 38/92/89 39/94/91 53/93/90
f 39/94/91 40/95/92 53/93/90
f 40/95/92 41/96/93 53/93/90
f 41/96/93 42/97/94 53/93/90
f 42/97/94 43/98/95 53/93/90
f 43/98/95 44/99/96 53/93/90
f 44/99/96 45/100/97 53/93/90
f 45/100/97 46/101/98 53/93/90
f 46/101/98 47/102/99 53/93/90
f 47/102/99 48/103/100 53/93/90
f 48/103/100 49/104/101 53/93/90
f 49/104/101 50/105/102 53/93/90
f 50/105/102 51/106/103 53/93/90
f 51/106/103 37/91/88 53/93/90
s 5
f 54/107/104 78/108/105 79/109/106 56/110/107
s 6
f 64/111/108 81/112/109 82/113/110 58/114/111
s 7
f 58/114/112 82/113/113 83/115/114 60/116/115
s off
f 86/117/116 87/118/117 88/119/118 89/120/119
s 8
f 65/121/120 62/122/121 61/123/122 59/124/123
s 9
f 60/125/124 63/126/125 64/127/126 58/128/127
s 10
f 63/129/128 84/130/129 85/131/130 67/132/131
s 9
f 64/127/126 63/126/125 67/133/132 68/134/133
s 6
f 68/135/134 80/136/135 81/112/109 64/111/108
s 8
f 69/137/136 66/138/137 62/122/121 65/121/120
s off
f 91/139/138 90/140/139 92/141/140 93/142/141
s 9
f 68/134/133 67/133/132 54/107/142 56/110/143
s 6
f 56/110/144 79/109/145 80/136/135 68/135/134
s 8
f 55/143/146 66/138/137 69/137/136 57/144/147
s 5
f 70/145/148 55/143/149 57/144/150 71/146/151
s 6
f 72/147/152 71/146/153 57/144/154 69/148/155
f 73/149/156 72/147/152 69/148/155 65/150/157
f 74/151/158 73/149/156 65/150/157 59/152/159
s 7
f 75/153/160 74/151/161 59/152/162 61/154/163
s off
f 95/155/164 94/156/165 96/157/166 97/158/167
s 10
f 77/159/168 76/160/169 62/161/170 66/162/171
s off
f 99/163/172 98/164/173 100/165/174 101/166/175
s 5
f 78/108/105 70/145/148 71/146/151 79/109/106
s 6
f 80/136/135 79/109/145 71/146/153 72/147/152
f 81/112/109 80/136/135 72/147/152 73/149/156
f 82/113/110 81/112/109 73/149/156 74/151/158
s 7
f 83/115/114 82/113/113 74/151/161 75/153/160
s 10
f 84/130/129 83/115/176 75/153/177 76/160/169
f 85/131/130 84/130/129 76/160/169 77/159/168
f 78/167/178 85/131/130 77/159/168 70/168/179
s off
f 60/116/180 83/115/181 87/118/182 86/117/183
f 83/115/184 84/130/185 88/119/186 87/118/187
f 84/130/188 63/129/189 89/120/190 88/119/191
f 63/129/192 60/116/193 86/117/194 89/120/195
f 67/132/196 85/131/197 90/140/198 91/139/199
f 85/131/200 78/167/201 92/141/202 90/140/203
f 78/167/204 54/169/205 93/142/206 92/141/207
f 54/169/208 67/132/209 91/139/210 93/142/211
f 76/160/212 75/153/213 94/156/214 95/155/215
f 75/153/216 61/154/217 96/157/218 94/156/219
f 61/154/220 62/161/221 97/158/222 96/157/223
f 62/161/224 76/160/225 95/155/226 97/158/227
f 70/168/228 77/159/229 98/164/230 99/163/231
f 77/159/232 66/162/233 100/165/234 98/164/235
f 66/162/236 55/170/237 101/166/238 100/165/239
f 55/170/240 70/168/241 99/163/242 101/166/243
