# This file uses centimeters as units for non-parametric coordinates.

mtllib windowplanesimple.mtl
g default
v -0.500000 0.000000 0.500000
v 0.500000 0.000000 0.500000
v -0.500000 0.000000 -0.500000
v 0.500000 0.000000 -0.500000
v 0.500000 0.000000 0.259196
v -0.500000 0.000000 0.259196
v 0.500000 0.000000 -0.240184
v -0.500000 0.000000 -0.240184
v 0.256406 0.000000 0.500000
v 0.256406 0.000000 0.259196
v 0.256406 0.000000 -0.240184
v 0.256406 0.000000 -0.500000
v -0.274819 0.000000 0.500000
v -0.274819 0.000000 0.259196
v -0.274819 0.000000 -0.240184
v -0.274819 0.000000 -0.500000
v -0.274819 -0.042581 0.259196
v -0.274819 -0.042581 -0.240184
v 0.256406 -0.042581 0.259196
v 0.256406 -0.042581 -0.240184
vt 0.000000 0.000000
vt 0.225181 0.000000
vt 0.225181 0.240804
vt 0.000000 0.240804
vt 0.225181 0.740184
vt 0.000000 0.740184
vt 0.225181 1.000000
vt 0.000000 1.000000
vt 0.756406 0.000000
vt 1.000000 0.000000
vt 1.000000 0.240804
vt 0.756406 0.240804
vt 0.756406 0.740184
vt 1.000000 0.740184
vt 0.756406 1.000000
vt 1.000000 1.000000
vt 0.225181 0.740184
vt 0.225181 0.240804
vt 0.756406 0.240804
vt 0.756406 0.740184
vn 0.000000 1.000000 0.000000
vn 0.000000 1.000000 0.000000
vn 0.000000 1.000000 0.000000
vn 0.000000 1.000000 0.000000
vn 0.000000 1.000000 0.000000
vn 0.000000 1.000000 0.000000
vn 0.000000 1.000000 0.000000
vn 0.000000 1.000000 0.000000
vn 0.000000 1.000000 0.000000
vn 0.000000 1.000000 0.000000
vn 0.000000 1.000000 0.000000
vn 0.000000 1.000000 0.000000
vn 0.000000 1.000000 0.000000
vn 0.000000 1.000000 0.000000
vn 0.000000 1.000000 0.000000
vn 0.000000 1.000000 0.000000
vn 0.000000 1.000000 0.000000
vn 0.000000 1.000000 0.000000
vn 0.000000 1.000000 0.000000
vn 0.000000 1.000000 0.000000
vn 0.000000 1.000000 0.000000
vn 0.000000 1.000000 0.000000
vn 0.000000 1.000000 0.000000
vn 0.000000 1.000000 0.000000
vn 0.000000 1.000000 0.000000
vn 0.000000 1.000000 0.000000
vn 0.000000 1.000000 0.000000
vn 0.000000 1.000000 0.000000
vn 0.000000 1.000000 0.000000
vn 0.000000 1.000000 0.000000
vn 0.000000 1.000000 0.000000
vn 0.000000 1.000000 0.000000
vn 1.000000 0.000000 0.000000
vn 1.000000 0.000000 0.000000
vn 1.000000 0.000000 0.000000
vn 1.000000 0.000000 0.000000
vn 0.000000 0.000000 -1.000000
vn 0.000000 0.000000 -1.000000
vn 0.000000 0.000000 -1.000000
vn 0.000000 0.000000 -1.000000
vn -1.000000 0.000000 0.000000
vn -1.000000 0.000000 0.000000
vn -1.000000 0.000000 0.000000
vn -1.000000 0.000000 0.000000
vn 0.000000 0.000000 1.000000
vn 0.000000 0.000000 1.000000
vn 0.000000 0.000000 1.000000
vn 0.000000 0.000000 1.000000
s off
g windowplane:pPlane4
usemtl windowplane:initialParticleSE
f 1/1/1 13/2/2 14/3/3 6/4/4
f 6/4/5 14/3/6 15/5/7 8/6/8
f 8/6/9 15/5/10 16/7/11 3/8/12
f 9/9/13 2/10/14 5/11/15 10/12/16
f 11/13/17 10/12/18 5/11/19 7/14/20
f 12/15/21 11/13/22 7/14/23 4/16/24
f 13/2/25 9/9/26 10/12/27 14/3/28
f 16/7/29 15/5/30 11/13/31 12/15/32
f 15/5/33 14/3/34 17/18/35 18/17/36
f 14/3/37 10/12/38 19/19/39 17/18/40
f 10/12/41 11/13/42 20/20/43 19/19/44
f 11/13/45 15/5/46 18/17/47 20/20/48
